<svg width="40" height="39" viewBox="0 0 40 39" fill="none" xmlns="http://www.w3.org/2000/svg">
<path d="M40 19.2069C40 8.60085 31.044 0 20 0C8.95599 0 0 8.60085 0 19.2069C0 29.813 8.95599 38.4138 20 38.4138C20.1175 38.4138 20.2344 38.4115 20.3516 38.4094V23.4577H16.0547V18.6486H20.3516V15.1097C20.3516 11.0055 22.9605 8.77171 26.7728 8.77171C28.5983 8.77171 30.1675 8.90242 30.625 8.96074V13.2502H27.9962C25.9222 13.2502 25.5206 14.1968 25.5206 15.5857V18.6486H30.4797L29.8334 23.4577H25.5206V37.6718C33.8803 35.3702 40 27.9739 40 19.2069Z" fill="#405F73"/>
</svg>
