<svg width="40" height="40" viewBox="0 0 40 40" fill="none" xmlns="http://www.w3.org/2000/svg">
<path d="M4.08654 0C2.48654 4.42 3.13269 8.10957 3.70192 10.1314C1.405 13.0405 0 17.0482 0 22.3864C0 35.5991 7.06154 40 20 40C32.9385 40 40 35.5991 40 22.3864C40.0015 17.23 38.5149 13.2087 36.1088 10.245C36.4534 9.57594 36.9261 8.27 36.9261 5.79545C36.9261 2.07364 35.8684 0 35.8684 0C34.2238 0 30.3588 0.783722 27.1635 4.5419C24.8942 3.87463 22.4753 3.63636 20.003 3.63636C17.5815 3.63636 15.2099 3.79327 12.9838 4.37145C12.8407 4.21509 8.86038 0 4.08654 0ZM12.3137 17.2727C14.3183 17.2982 17.6261 18.18 20.003 18.1818C22.3799 18.18 25.6847 17.2982 27.6893 17.2727C31.5693 17.2727 33.8432 20.9139 33.8432 25.4048C33.8432 32.7721 30.2383 36.3618 20.006 36.3636H20.003H19.997C9.76469 36.3618 6.15986 32.7721 6.15986 25.4048C6.15986 20.9139 8.4337 17.2727 12.3137 17.2727ZM13.0739 23.6364C12.4619 23.6364 11.8749 24.0195 11.4421 24.7014C11.0094 25.3834 10.7662 26.3083 10.7662 27.2727C10.7662 28.2372 11.0094 29.1621 11.4421 29.844C11.8749 30.526 12.4619 30.9091 13.0739 30.9091C13.686 30.9091 14.2729 30.526 14.7057 29.844C15.1385 29.1621 15.3816 28.2372 15.3816 27.2727C15.3816 26.3083 15.1385 25.3834 14.7057 24.7014C14.2729 24.0195 13.686 23.6364 13.0739 23.6364ZM26.9201 23.6364C26.308 23.6364 25.7211 24.0195 25.2883 24.7014C24.8555 25.3834 24.6124 26.3083 24.6124 27.2727C24.6124 28.2372 24.8555 29.1621 25.2883 29.844C25.7211 30.526 26.308 30.9091 26.9201 30.9091C27.5321 30.9091 28.1191 30.526 28.5519 29.844C28.9846 29.1621 29.2278 28.2372 29.2278 27.2727C29.2278 26.3083 28.9846 25.3834 28.5519 24.7014C28.1191 24.0195 27.5321 23.6364 26.9201 23.6364Z" fill="#405F73"/>
</svg>
