<svg width="40" height="39" viewBox="0 0 40 39" fill="none" xmlns="http://www.w3.org/2000/svg">
<path d="M24.1219 19.2069C24.1219 21.2374 22.3869 22.8833 20.2465 22.8833C18.1061 22.8833 16.3711 21.2374 16.3711 19.2069C16.3711 17.1765 18.1061 15.5305 20.2465 15.5305C22.3869 15.5305 24.1219 17.1765 24.1219 19.2069Z" fill="#405F73"/>
<path d="M29.3095 12.7024C29.1232 12.2235 28.826 11.7901 28.4399 11.4343C28.0648 11.0679 27.6082 10.786 27.1031 10.6093C26.6934 10.4584 26.078 10.2787 24.9445 10.2298C23.7183 10.1767 23.3506 10.1653 20.2464 10.1653C17.1418 10.1653 16.7742 10.1764 15.5483 10.2295C14.4148 10.2787 13.799 10.4584 13.3897 10.6093C12.8846 10.786 12.4276 11.0679 12.0529 11.4343C11.6667 11.7901 11.3695 12.2232 11.1829 12.7024C11.0238 13.091 10.8344 13.6751 10.7828 14.7504C10.7269 15.9133 10.7148 16.2621 10.7148 19.2072C10.7148 22.152 10.7269 22.5007 10.7828 23.6639C10.8344 24.7392 11.0238 25.323 11.1829 25.7116C11.3695 26.1908 11.6664 26.624 12.0526 26.9798C12.4276 27.3461 12.8842 27.628 13.3894 27.8048C13.799 27.956 14.4148 28.1357 15.5483 28.1846C16.7742 28.2376 17.1415 28.2488 20.2461 28.2488C23.3509 28.2488 23.7186 28.2376 24.9442 28.1846C26.0777 28.1357 26.6934 27.956 27.1031 27.8048C28.117 27.4337 28.9184 26.6735 29.3095 25.7116C29.4686 25.323 29.658 24.7392 29.7099 23.6639C29.7658 22.5007 29.7776 22.152 29.7776 19.2072C29.7776 16.2621 29.7658 15.9133 29.7099 14.7504C29.6583 13.6751 29.469 13.091 29.3095 12.7024ZM20.2464 24.8702C16.949 24.8702 14.276 22.3349 14.276 19.2069C14.276 16.0789 16.949 13.5435 20.2464 13.5435C23.5434 13.5435 26.2164 16.0789 26.2164 19.2069C26.2164 22.3349 23.5434 24.8702 20.2464 24.8702ZM26.4524 14.6431C25.6819 14.6431 25.0572 14.0506 25.0572 13.3196C25.0572 12.5887 25.6819 11.9961 26.4524 11.9961C27.2229 11.9961 27.8476 12.5887 27.8476 13.3196C27.8473 14.0506 27.2229 14.6431 26.4524 14.6431Z" fill="#405F73"/>
<path d="M20 0C8.95599 0 0 8.60085 0 19.2069C0 29.813 8.95599 38.4138 20 38.4138C31.044 38.4138 40 29.813 40 19.2069C40 8.60085 31.044 0 20 0ZM31.4151 23.754C31.3596 24.928 31.1652 25.7296 30.8813 26.4312C30.2847 27.9127 29.0652 29.0838 27.5226 29.6568C26.7923 29.9293 25.9573 30.1157 24.7351 30.1693C23.5104 30.223 23.1192 30.2359 20.0003 30.2359C16.8811 30.2359 16.4902 30.223 15.2652 30.1693C14.043 30.1157 13.208 29.9293 12.4777 29.6568C11.7111 29.3798 11.0172 28.9458 10.4434 28.3845C9.85931 27.8338 9.40735 27.1671 9.11896 26.4312C8.83514 25.7299 8.64075 24.928 8.58521 23.7542C8.52875 22.5778 8.51562 22.2021 8.51562 19.2069C8.51562 16.2117 8.52875 15.836 8.5849 14.6599C8.64044 13.4858 8.83453 12.6842 9.11835 11.9826C9.40674 11.2467 9.85901 10.58 10.4434 10.0293C11.0168 9.46805 11.7111 9.03401 12.4774 8.75706C13.208 8.4845 14.0427 8.2981 15.2652 8.24447C16.4899 8.19084 16.8811 8.17794 20 8.17794C23.1189 8.17794 23.5101 8.19084 24.7348 8.24476C25.9573 8.2981 26.792 8.4845 27.5226 8.75676C28.2889 9.03372 28.9832 9.46805 29.5569 10.0293C30.141 10.5803 30.5933 11.2467 30.8813 11.9826C31.1655 12.6842 31.3596 13.4858 31.4154 14.6599C31.4713 15.836 31.4844 16.2117 31.4844 19.2069C31.4844 22.2021 31.4713 22.5778 31.4151 23.754Z" fill="#405F73"/>
</svg>
