<svg width="40" height="40" viewBox="0 0 40 40" fill="none" xmlns="http://www.w3.org/2000/svg">
<g clip-path="url(#clip0)">
<path d="M36.1942 1.71875H9.86176C9.53369 1.71875 9.26758 1.98486 9.26758 2.31293C9.26758 2.64099 9.53369 2.9068 9.86176 2.9068H36.1942C37.6376 2.9068 38.812 4.08112 38.812 5.52429V26.6641C38.812 28.1076 37.6376 29.2816 36.1942 29.2816H3.80554C2.36237 29.2816 1.18805 28.1076 1.18805 26.6641V5.52429C1.18805 4.08112 2.36237 2.9068 3.80554 2.9068H7.48535C7.81342 2.9068 8.07953 2.64099 8.07953 2.31293C8.07953 1.98486 7.81342 1.71875 7.48535 1.71875H3.80554C1.70715 1.71875 0 3.4259 0 5.52429V26.6641C0 28.7625 1.70715 30.4697 3.80554 30.4697H13.3582L12.1945 34.2719H10.0131C8.89923 34.2719 7.99347 35.1779 7.99347 36.2915C7.99347 37.4054 8.89923 38.3112 10.0131 38.3112H29.9869C31.1005 38.3112 32.0065 37.4054 32.0065 36.2915C32.0065 35.1779 31.1005 34.2719 29.9869 34.2719H27.8055L26.6418 30.4697H36.1942C38.2928 30.4697 40 28.7625 40 26.6641V5.52429C40 3.4259 38.2928 1.71875 36.1942 1.71875ZM30.8185 36.2918C30.8185 36.7502 30.4453 37.1234 29.9869 37.1234H10.0131C9.55444 37.1234 9.18152 36.7502 9.18152 36.2918C9.18152 35.8331 9.55444 35.4602 10.0131 35.4602H29.9869C30.4453 35.4602 30.8185 35.8331 30.8185 36.2918ZM26.5628 34.2719H13.4372L14.6005 30.47H25.3995L26.5628 34.2719Z" fill="#405F73"/>
<path d="M36.2381 21.0572C36.5665 21.0572 36.8323 20.7911 36.8323 20.463V5.52466C36.8323 5.17279 36.5463 4.88684 36.1945 4.88684H3.80554C3.45459 4.88684 3.16895 5.17279 3.16895 5.52466V24.8862C3.16895 25.2143 3.43475 25.4801 3.76282 25.4801H36.2381C36.5665 25.4801 36.8323 25.2143 36.8323 24.8862V22.8394C36.8323 22.5114 36.5665 22.2455 36.2381 22.2455C35.91 22.2455 35.6442 22.5114 35.6442 22.8394V24.2921H4.35699V6.07489H35.6442V20.463C35.6442 20.7914 35.91 21.0572 36.2381 21.0572Z" fill="#405F73"/>
<path d="M20.4937 26.9448C20.3636 26.7471 20.1152 26.6458 19.8836 26.6922C19.6303 26.7428 19.4335 26.9595 19.4091 27.2171C19.3578 27.7542 20.0218 28.0774 20.4116 27.7032C20.6172 27.5055 20.6502 27.1823 20.4937 26.9448Z" fill="#405F73"/>
</g>
<defs>
<clipPath id="clip0">
<rect width="40" height="40" fill="white"/>
</clipPath>
</defs>
</svg>
