<svg xmlns="http://www.w3.org/2000/svg" width="154" height="139" fill="none" style=""><rect id="backgroundrect" width="100%" height="100%" x="0" y="0" fill="none" stroke="none"/>










<defs>
<linearGradient id="paint0_linear" x1="-477.51009626310287" y1="568.1493391162624" x2="-477.51009626310287" y2="54.569874522069625">
<stop stop-color="#808080" stop-opacity="0.25"/>
<stop offset="0.54" stop-color="#808080" stop-opacity="0.12"/>
<stop offset="1" stop-color="#808080" stop-opacity="0.1"/>
</linearGradient>
</defs>
<g class="currentLayer" style=""><title>Layer 1</title><path d="M1.8890173950195361,125.32632907867432 L75.94301739501952,66.16582907867432 C76.37401739501954,65.73872907867431 76.88601739501954,65.40012907867431 77.44901739501952,65.16932907867432 C78.01301739501952,64.93862907867431 78.61601739501953,64.82032907867432 79.22601739501954,64.82122907867432 H82.37201739501953 C76.08401739501954,56.83282907867432 73.10601739501953,46.76762907867432 74.04601739501953,36.67772907867432 C74.98601739501953,26.587929078674314 79.77201739501953,17.233329078674316 87.43001739501952,10.521429078674316 C95.08701739501953,3.8095290786743163 105.03801739501952,0.2456690786743163 115.25501739501954,0.5565990786743171 C125.47101739501954,0.8675290786743162 135.18301739501953,5.029829078674316 142.41101739501954,12.194729078674317 C149.63801739501952,19.359729078674317 153.83701739501953,28.987729078674313 154.15001739501952,39.11572907867431 C154.46401739501954,49.24362907867432 150.8690173950195,59.10892907867432 144.09801739501953,66.69982907867431 C137.32801739501954,74.29082907867432 127.89201739501954,79.03582907867431 117.71401739501954,79.96742907867431 C107.53601739501954,80.89902907867432 97.38301739501952,77.94712907867432 89.32501739501953,71.71342907867431 V74.83012907867432 C89.32601739501953,75.43432907867431 89.20601739501953,76.03272907867432 88.97301739501953,76.59102907867431 C88.74101739501953,77.14942907867432 88.39901739501954,77.65672907867432 87.96801739501953,78.08402907867432 L13.914017395019528,137.24432907867433 C13.48601739501953,137.67332907867433 12.976017395019525,138.0133290786743 12.414017395019528,138.2453290786743 C11.85201739501953,138.47732907867433 11.249017395019536,138.5973290786743 10.640017395019527,138.5973290786743 C10.031017395019532,138.5973290786743 9.429017395019528,138.47732907867433 8.86701739501953,138.2453290786743 C8.305017395019533,138.0133290786743 7.795017395019528,137.67332907867433 7.366017395019526,137.24432907867433 L1.9080173950195274,131.83932907867433 C1.0370173950195323,130.97732907867433 0.5470173950195374,129.80732907867431 0.5430173950195325,128.58732907867432 C0.5400173950195324,127.36632907867431 1.024017395019527,126.19432907867431 1.8890173950195361,125.32632907867432 zM114.04701739501954,64.82122907867432 C118.93701739501952,64.82122907867432 123.71701739501952,63.38382907867431 127.78201739501952,60.69072907867432 C131.84801739501953,57.99772907867431 135.01701739501954,54.17002907867432 136.88801739501952,49.69162907867432 C138.75901739501953,45.21322907867432 139.24901739501954,40.285329078674316 138.29501739501953,35.53112907867432 C137.34101739501952,30.776929078674314 134.98601739501953,26.409829078674314 131.52901739501954,22.982229078674315 C128.07101739501954,19.554629078674317 123.66601739501954,17.220429078674318 118.87001739501954,16.274729078674316 C114.07501739501953,15.329129078674317 109.10401739501953,15.814429078674316 104.58601739501952,17.669429078674316 C100.06901739501953,19.524429078674316 96.20801739501954,22.665829078674317 93.49101739501953,26.696229078674314 C90.77501739501952,30.726629078674314 89.32501739501953,35.465129078674316 89.32501739501953,40.31252907867432 C89.32201739501954,43.53202907867431 89.96001739501952,46.720429078674314 91.20101739501953,49.69532907867432 C92.44301739501952,52.670329078674314 94.26401739501952,55.37342907867431 96.56001739501954,57.650229078674315 C98.85601739501953,59.92702907867432 101.58201739501953,61.73272907867431 104.58301739501954,62.96412907867432 C107.58401739501954,64.19552907867431 110.80001739501952,64.82842907867432 114.04701739501954,64.82662907867432 V64.82122907867432 z" fill="url(#paint0_linear)" id="svg_1" class=""/><path d="M1.3460173950195298,124.78832907867431 L75.40001739501952,65.62792907867431 C75.83101739501953,65.20082907867432 76.34301739501953,64.86222907867432 76.90601739501952,64.63152907867432 C77.47001739501954,64.40082907867432 78.07301739501952,64.28252907867432 78.68301739501953,64.28342907867432 H81.82901739501952 C75.54101739501954,56.29502907867432 72.56401739501953,46.22972907867432 73.50301739501953,36.139929078674314 C74.44301739501952,26.050129078674317 79.22901739501953,16.695529078674316 86.88701739501954,9.983629078674316 C94.54401739501952,3.271629078674316 104.49501739501954,-0.2921709213256838 114.71201739501953,0.018759078674316143 C124.92801739501954,0.32968907867431696 134.64001739501953,4.491929078674316 141.86801739501954,11.656929078674317 C149.09501739501954,18.821829078674316 153.29401739501952,28.44982907867432 153.6070173950195,38.57782907867432 C153.92101739501953,48.70582907867431 150.3260173950195,58.571029078674314 143.55501739501952,66.16202907867432 C136.78501739501954,73.75292907867431 127.34901739501953,78.49802907867432 117.17101739501953,79.42962907867431 C106.99301739501954,80.36122907867431 96.84001739501954,77.40922907867431 88.78201739501952,71.17562907867432 V74.29232907867431 C88.78301739501953,74.89642907867432 88.66301739501952,75.49482907867431 88.43101739501952,76.05322907867432 C88.19801739501952,76.61152907867432 87.85601739501953,77.11892907867431 87.42501739501952,77.54612907867431 L13.371017395019535,136.70732907867432 C12.943017395019538,137.13532907867432 12.433017395019533,137.47532907867432 11.871017395019535,137.70732907867432 C11.309017395019538,137.93932907867432 10.70601739501953,138.05932907867432 10.097017395019535,138.05932907867432 C9.48901739501953,138.05932907867432 8.886017395019536,137.93932907867432 8.324017395019524,137.70732907867432 C7.762017395019527,137.47532907867432 7.252017395019536,137.13532907867432 6.823017395019534,136.70732907867432 L1.3650173950195352,131.3013290786743 C0.4950173950195307,130.43932907867432 0.004017395019531023,129.2693290786743 0.000017395019526134092,128.0493290786743 C-0.0029826049804739796,126.82832907867433 0.4810173950195349,125.6563290786743 1.3460173950195298,124.78832907867431 zM113.50401739501953,64.28342907867432 C118.39401739501952,64.28342907867432 123.17401739501952,62.84592907867432 127.23901739501954,60.15292907867432 C131.30501739501952,57.45982907867432 134.47401739501953,53.63212907867432 136.34501739501954,49.15372907867432 C138.21601739501952,44.67532907867432 138.70601739501953,39.74752907867432 137.75201739501952,34.99322907867432 C136.79801739501954,30.239029078674314 134.44301739501952,25.872029078674316 130.98601739501953,22.444429078674318 C127.52801739501953,19.016829078674316 123.12301739501953,16.682629078674317 118.32701739501954,15.736929078674315 C113.53201739501952,14.791229078674316 108.56101739501952,15.276629078674315 104.04301739501952,17.131629078674315 C99.52601739501952,18.986629078674316 95.66501739501953,22.127929078674317 92.94801739501952,26.158429078674317 C90.23201739501954,30.188829078674317 88.78201739501952,34.92732907867432 88.78201739501952,39.77472907867432 C88.77901739501954,42.99412907867432 89.41701739501954,46.182529078674314 90.65801739501953,49.157529078674315 C91.90001739501952,52.13242907867431 93.72101739501954,54.835629078674316 96.01701739501954,57.11232907867432 C98.31301739501953,59.389129078674316 101.03901739501953,61.19482907867432 104.04001739501953,62.42622907867431 C107.04101739501954,63.65762907867432 110.25701739501955,64.29052907867431 113.50401739501953,64.28872907867432 V64.28342907867432 z" fill="#405F73" id="svg_2" class=""/><path d="M110.80101739501953,49.931529078674316 L104.96601739501952,45.47032907867432 C104.96601739501952,45.47032907867432 108.87501739501954,46.30122907867432 108.76401739501952,40.10822907867431 C108.76501739501953,40.08762907867432 108.76501739501953,40.06692907867431 108.76401739501952,40.04632907867432 C108.76401739501952,39.48702907867432 108.71001739501952,38.873929078674315 108.62801739501953,38.19892907867432 C107.62701739501952,29.93522907867432 115.63001739501954,37.20662907867432 115.63001739501954,37.20662907867432 C115.56101739501952,37.93822907867432 115.56101739501952,38.67472907867432 115.63001739501954,39.40632907867432 C115.63001739501954,39.42512907867432 115.63001739501954,39.44662907867431 115.63001739501954,39.465529078674315 C115.78801739501952,41.501929078674316 116.35401739501953,43.48662907867432 117.29501739501953,45.303529078674316 C119.46801739501953,49.434029078674314 110.80101739501953,49.931529078674316 110.80101739501953,49.931529078674316 z" fill="#FDC2CC" id="svg_3" class=""/><path opacity="0.1" d="M114.88401739501953,38.25802907867432 C113.89301739501954,39.212729078674315 113.28901739501953,40.94722907867432 111.79901739501952,40.94722907867432 C110.72201739501952,40.94952907867432 109.66801739501952,40.636129078674315 108.76901739501952,40.04632907867432 C108.76901739501952,39.48702907867432 108.71501739501954,38.873929078674315 108.63401739501953,38.19892907867432 C107.63301739501952,29.93522907867432 115.63501739501953,37.20662907867432 115.63501739501953,37.20662907867432 C115.63501739501953,37.20662907867432 114.77801739501953,36.913529078674316 114.88401739501953,38.25802907867432 z" fill="black" id="svg_4" class=""/><path d="M111.79901739501952,40.67832907867432 C108.76101739501954,40.67832907867432 106.29801739501954,38.236729078674315 106.29801739501954,35.22482907867432 C106.29801739501954,32.21282907867432 108.76101739501954,29.771229078674317 111.79901739501952,29.771229078674317 C114.83701739501953,29.771229078674317 117.30001739501952,32.21282907867432 117.30001739501952,35.22482907867432 C117.30001739501952,38.236729078674315 114.83701739501953,40.67832907867432 111.79901739501952,40.67832907867432 z" fill="#FDC2CC" id="svg_5" class=""/><path opacity="0.1" d="M106.52201739501953,28.24112907867432 C106.83801739501953,27.845829078674313 107.20201739501954,27.491629078674315 107.60701739501954,27.186929078674318 C108.24201739501953,26.662629078674314 108.94701739501954,26.111329078674316 109.73701739501954,26.159729078674317 C110.18301739501953,26.21862907867432 110.61201739501954,26.37082907867432 110.99501739501954,26.606129078674314 C112.96201739501953,27.633329078674315 114.59201739501952,26.662629078674314 116.87901739501953,29.717429078674314 C117.36701739501953,30.370929078674315 118.34601739501954,30.524129078674314 118.85101739501954,31.209929078674314 C119.35601739501953,31.895629078674318 119.55901739501954,32.79652907867432 119.70301739501954,33.673129078674314 C119.82201739501954,34.26612907867432 119.85001739501953,34.873529078674316 119.78701739501952,35.47482907867432 C119.72701739501954,36.06512907867432 119.43401739501954,36.60802907867431 118.97301739501953,36.98612907867432 C118.44701739501954,37.365329078674314 117.72301739501953,37.36802907867432 117.28001739501954,37.865529078674314 C117.05801739501953,38.18952907867432 116.87601739501955,38.538929078674315 116.73801739501954,38.906229078674315 C116.55901739501954,39.255729078674314 116.24401739501954,39.58652907867432 115.88601739501954,39.53542907867432 C115.52801739501953,39.484329078674314 115.31401739501953,39.09982907867432 115.26201739501954,38.72872907867432 C115.24001739501952,38.344629078674316 115.26301739501952,37.959329078674315 115.33001739501952,37.580429078674314 C115.39801739501954,36.90012907867432 115.31101739501952,36.157929078674314 114.90701739501952,35.644229078674314 C114.63601739501954,35.29202907867432 114.22901739501953,35.08222907867432 113.96001739501952,34.72462907867432 C113.31501739501954,33.861329078674316 113.60801739501954,32.41192907867432 112.90001739501952,31.61052907867432 C112.69301739501952,31.399829078674315 112.43301739501953,31.247229078674316 112.14701739501953,31.16832907867432 C111.86101739501953,31.089429078674314 111.55901739501954,31.087129078674316 111.27201739501953,31.161529078674313 C110.70201739501954,31.322829078674317 110.15501739501954,31.556029078674314 109.64401739501952,31.855329078674316 C108.93201739501953,32.211629078674314 108.18601739501952,32.497229078674316 107.41701739501954,32.70772907867432 C106.77201739501953,32.88252907867432 106.02301739501954,33.302029078674316 105.80301739501954,32.43882907867432 C105.45901739501954,31.169529078674316 105.78201739501952,29.254929078674316 106.52201739501953,28.24112907867432 z" fill="black" id="svg_6" class=""/><path d="M106.52201739501953,27.972029078674318 C106.83801739501953,27.57672907867432 107.20201739501954,27.222629078674316 107.60701739501954,26.91792907867432 C108.24201739501953,26.39352907867432 108.94701739501954,25.842229078674315 109.73701739501954,25.890629078674316 C110.18301739501953,25.949629078674313 110.61201739501954,26.101729078674317 110.99501739501954,26.33702907867432 C112.96201739501953,27.364329078674317 114.59201739501952,26.39352907867432 116.87901739501953,29.448429078674316 C117.36701739501953,30.101829078674314 118.34601739501954,30.255129078674315 118.85101739501954,30.94082907867432 C119.35601739501953,31.62662907867432 119.55901739501954,32.52742907867432 119.70301739501954,33.404129078674316 C119.82201739501954,33.99712907867432 119.85001739501953,34.604429078674315 119.78701739501952,35.20582907867431 C119.72701739501954,35.796029078674316 119.43401739501954,36.339029078674315 118.97301739501953,36.71712907867432 C118.44701739501954,37.09622907867432 117.72301739501953,37.09892907867432 117.28001739501954,37.59642907867432 C117.05801739501953,37.92052907867431 116.87601739501955,38.269929078674316 116.73801739501954,38.63712907867431 C116.55901739501954,38.986729078674315 116.24401739501954,39.31752907867432 115.88601739501954,39.266429078674314 C115.52801739501953,39.215329078674316 115.31401739501953,38.83072907867432 115.26201739501954,38.45962907867432 C115.24001739501952,38.07562907867432 115.26301739501952,37.690229078674314 115.33001739501952,37.311429078674315 C115.39801739501954,36.63102907867432 115.31101739501952,35.88882907867432 114.90701739501952,35.375229078674316 C114.63601739501954,35.022929078674316 114.22901739501953,34.81322907867432 113.96001739501952,34.45552907867432 C113.31501739501954,33.59232907867432 113.60801739501954,32.142929078674314 112.90001739501952,31.34152907867432 C112.69301739501952,31.130729078674314 112.43301739501953,30.978129078674314 112.14701739501953,30.899329078674313 C111.86101739501953,30.820429078674316 111.55901739501954,30.818029078674314 111.27201739501953,30.89242907867432 C110.70201739501954,31.05382907867432 110.15501739501954,31.28692907867432 109.64401739501952,31.586229078674315 C108.93201739501953,31.942629078674315 108.18601739501952,32.228129078674314 107.41701739501954,32.438729078674314 C106.77201739501953,32.61352907867432 106.02301739501954,33.03302907867432 105.80301739501954,32.16982907867432 C105.45901739501954,30.900529078674317 105.78201739501952,28.985829078674314 106.52201739501953,27.972029078674318 z" fill="#865A61" id="svg_7" class=""/><path opacity="0.1" d="M117.29901739501952,52.800929078674315 L117.40801739501953,56.92872907867432 C115.83101739501953,57.35342907867431 114.20501739501952,57.56782907867432 112.57101739501954,57.56602907867432 C112.30001739501952,57.56602907867432 112.01501739501953,57.56602907867432 111.73801739501954,57.54722907867432 C110.29001739501953,57.48532907867431 108.85401739501953,57.25242907867431 107.46101739501952,56.85342907867431 H107.43401739501954 C107.17601739501953,56.77812907867431 106.92101739501953,56.70012907867432 106.66901739501952,56.61412907867431 H106.64201739501954 L106.41101739501954,56.53342907867432 C105.53301739501953,56.22692907867432 104.68001739501952,55.85282907867432 103.86101739501953,55.41472907867432 L103.81001739501954,55.38792907867432 C103.72001739501954,55.33952907867432 103.63101739501954,55.29102907867431 103.53801739501952,55.239929078674315 L103.95901739501954,49.676129078674315 L103.28901739501953,45.86032907867432 L106.95601739501953,43.38362907867432 C107.16201739501952,43.67832907867432 107.39301739501954,43.955429078674314 107.64501739501952,44.21182907867431 C108.00701739501955,44.58672907867432 108.43101739501952,44.89772907867432 108.89801739501954,45.13152907867432 C111.53001739501954,46.416929078674315 114.52401739501954,44.37322907867431 116.01401739501952,43.109329078674314 L116.35301739501952,42.81082907867432 C116.73801739501954,42.46392907867432 116.95801739501954,42.227329078674316 116.95801739501954,42.227329078674316 L118.79101739501954,45.03472907867432 L117.29901739501952,52.800929078674315 z" fill="black" id="svg_8" class=""/><path d="M117.29901739501952,54.37442907867432 L117.40801739501953,58.50222907867432 C115.83101739501953,58.92692907867432 114.20501739501952,59.14132907867432 112.57101739501954,59.139529078674315 C112.30001739501952,59.139529078674315 112.01501739501953,59.139529078674315 111.73901739501954,59.120729078674316 C110.29001739501953,59.05882907867432 108.85401739501953,58.82592907867432 107.46101739501952,58.42692907867432 H107.43401739501954 C107.17601739501953,58.35162907867432 106.92101739501953,58.27362907867432 106.66901739501952,58.18762907867432 H106.64201739501954 L106.41101739501954,58.10692907867431 C105.53301739501953,57.80042907867431 104.68001739501952,57.426329078674314 103.86101739501953,56.98822907867432 L103.81001739501954,56.961429078674314 C103.72001739501954,56.91302907867431 103.63101739501954,56.86452907867432 103.53801739501952,56.81342907867432 L103.95901739501954,51.24962907867432 L103.28901739501953,47.433829078674314 L106.95601739501953,44.95712907867431 C107.16201739501952,45.25182907867432 107.39301739501954,45.52892907867432 107.64501739501952,45.785329078674316 C108.00701739501955,46.16022907867432 108.43101739501952,46.47122907867432 108.89801739501954,46.705029078674315 C111.53001739501954,47.99042907867432 114.52401739501954,45.946729078674316 116.01401739501952,44.68282907867432 L116.35301739501952,44.38432907867432 C116.73801739501954,44.037429078674315 116.95801739501954,43.80082907867432 116.95801739501954,43.80082907867432 L118.79101739501954,46.60822907867431 L117.29901739501952,54.37442907867432 z" fill="#53526B" id="svg_9" class=""/><path d="M107.13201739501955,53.40052907867432 C107.13201739501955,53.40052907867432 106.93101739501952,54.98442907867432 106.66801739501952,56.877529078674314 H106.64101739501953 L106.41101739501954,56.79682907867432 C105.53301739501953,56.49032907867432 104.68001739501952,56.11632907867432 103.86101739501953,55.67822907867431 L103.80901739501954,55.651329078674316 C103.72001739501954,55.602929078674315 103.63001739501954,55.554529078674314 103.53801739501952,55.503429078674316 C102.33501739501952,54.834329078674315 101.21301739501953,54.03322907867432 100.19101739501954,53.11542907867432 L100.10101739501954,53.032129078674316 C99.54101739501954,52.529129078674316 99.01401739501952,51.990129078674315 98.52501739501952,51.418629078674314 L98.46801739501953,51.351429078674315 C99.43701739501952,48.01952907867432 101.45201739501954,46.97082907867431 101.45201739501954,46.97082907867431 C101.45201739501954,46.97082907867431 103.28601739501954,46.142529078674315 103.78801739501952,44.98622907867431 C104.28901739501953,43.82992907867432 108.71901739501953,41.38552907867432 108.71901739501953,41.38552907867432 V41.404329078674316 C108.71901739501953,41.61142907867432 108.79001739501953,43.507229078674314 108.89501739501952,45.41382907867432 C108.96301739501953,46.65352907867432 109.04701739501954,47.898529078674315 109.14501739501952,48.68912907867432 C109.16601739501954,48.946029078674314 109.21301739501953,49.20002907867432 109.28601739501954,49.447529078674314 C109.63001739501954,50.26232907867432 107.13201739501955,53.40052907867432 107.13201739501955,53.40052907867432 z" fill="#555388" id="svg_10" class=""/></g></svg>