<svg width="521" height="377" viewBox="0 0 521 377" fill="none" xmlns="http://www.w3.org/2000/svg">
<path d="M220.501 72.3592C203.207 7.72293 125.274 -13.0995 80.6117 35.2064C79.9704 35.9008 79.33 36.6056 78.6892 37.3232C14.6586 109.034 44.907 285.752 178.538 330.544C312.167 375.334 451.162 293.543 458.97 220.427C466.778 147.31 405.129 124.335 309.452 144.781C255.399 156.332 231.268 112.597 220.501 72.3592Z" fill="#405F73" fill-opacity="0.16"/>
<path d="M331.664 83.415C313.785 86.414 308.829 102.733 322.633 114.311C327.197 118.138 333.713 121.318 342.997 122.904C378.359 128.948 397.124 112.829 382.95 91.9285C374.2 79.0296 349.382 80.4427 331.664 83.415Z" fill="#BBD1DF"/>
<path d="M54.9603 215.508C46.1809 199.185 29.5976 199.892 23.6843 217.189C21.7297 222.906 21.0265 230.299 22.713 239.837C29.1365 276.171 50.202 288.923 64.5067 268.117C73.3359 255.276 63.6606 231.686 54.9603 215.508Z" fill="#BBD1DF"/>
<path d="M471.573 228.924C469.926 237.807 477.046 244.099 485.114 240.677C487.78 239.545 490.469 237.363 492.862 233.529C501.977 218.921 497.36 206.388 484.669 207.675C476.836 208.469 473.206 220.12 471.573 228.924Z" fill="#BBD1DF"/>
<path d="M426.373 135.181C434.966 137.029 441.194 129.802 438.009 121.434C436.957 118.668 434.887 115.86 431.205 113.331C417.183 103.691 404.943 108.233 405.976 121.328C406.612 129.412 417.858 133.351 426.373 135.181Z" fill="#BBD1DF"/>
<path d="M217.516 40.1204C224.32 45.8355 233.076 42.3729 233.987 33.4327C234.287 30.4778 233.704 27.0024 231.566 23.0111C223.422 7.80637 210.526 6.03505 205.593 18.1504C202.548 25.6287 210.773 34.4575 217.516 40.1204Z" fill="#BBD1DF"/>
<path d="M489.609 359.139C492.559 359.648 495.638 358.796 497.694 356.556C499.035 355.097 499.944 353.294 499.943 351.567V351.491C499.905 339.1 514.682 339.925 519.425 324.774C524.168 309.625 505.421 308.35 494.713 317.703C487.015 324.43 477.775 315.032 466.585 322.877C456.868 329.685 462.28 346.45 446.342 341.209C441.254 339.532 436.695 341.147 432.851 344.121C428.423 347.545 425.539 352.343 424.34 357.553L425.609 358.478C457.043 378.328 471.208 355.974 489.609 359.139Z" fill="#F29422"/>
<path d="M458.462 358.478L500.134 330.917C500.692 330.548 500.853 329.783 500.495 329.208C500.138 328.633 499.395 328.467 498.837 328.836L454.018 358.478H458.462Z" fill="#F29422"/>
<path d="M456.216 276.483C454.456 249.47 454.168 221.143 456.119 202.361C458.669 177.823 464.436 160.741 473.26 151.591C473.845 150.986 474.797 150.983 475.386 151.586C475.974 152.188 475.978 153.168 475.393 153.775C459.965 169.77 454.418 212.715 459.319 278.058L456.216 276.483Z" fill="#405F73"/>
<path d="M460.161 180.682C460.161 180.682 447.599 180.661 448.497 157.908C448.497 157.908 467.718 163.557 460.161 180.682Z" fill="#F29422"/>
<path d="M459.11 192.386C459.11 192.386 458.431 179.464 480.53 179.121C480.53 179.121 476.125 199.206 459.11 192.386Z" fill="#F29422"/>
<path d="M468.715 160.471C468.715 160.471 463.892 148.521 484.618 140.606C484.618 140.606 486.964 161.055 468.715 160.471Z" fill="#F29422"/>
<path d="M456.287 215.869C456.287 215.869 444.46 220.228 437.835 198.503C437.835 198.503 457.776 197.121 456.287 215.869Z" fill="#F29422"/>
<path d="M456.969 227.962C456.969 227.962 454.13 215.354 475.839 211.078C475.839 211.078 474.871 231.647 456.969 227.962Z" fill="#F29422"/>
<path d="M456.304 244.613C456.304 244.613 444.56 249.202 437.535 227.61C437.535 227.61 457.449 225.84 456.304 244.613Z" fill="#F29422"/>
<path d="M91.7723 336.689L88.3495 336.55L86.5346 336.474L81.3921 336.263C81.3921 336.263 33.866 253.139 63.6393 226.031C72.8052 217.686 88.8289 224.604 85.2868 262.961C82.004 298.515 91.7723 336.689 91.7723 336.689Z" fill="#F29422"/>
<path d="M88.3498 336.55L86.5349 336.474C78.2379 316.333 74.0493 294.698 71.9708 279.512C69.502 261.48 69.3868 248.386 69.3877 248.258C69.3833 247.788 69.7486 247.407 70.2021 247.406C70.6561 247.401 71.0263 247.779 71.0298 248.244C71.0303 248.375 71.1436 261.377 73.6014 279.304C75.6927 294.564 79.9257 316.376 88.3498 336.55Z" fill="#405F73"/>
<path d="M101.215 353.342L96.566 355.121L94.0996 356.063L87.1138 358.731C87.1138 358.731 -21.3473 274.941 3.77628 221.629C11.5101 205.216 36.664 205.262 52.6736 258.547C67.5163 307.941 101.215 353.342 101.215 353.342Z" fill="#F29422"/>
<path d="M96.566 355.12L94.0996 356.063C72.1212 333.913 54.823 307.407 43.8322 288.309C30.7806 265.631 23.546 248.201 23.4771 248.027C23.2182 247.404 23.4999 246.685 24.1056 246.424C24.7099 246.156 25.4079 246.447 25.6641 247.067C25.7362 247.243 32.9189 264.551 45.8984 287.095C56.9458 306.285 74.3988 333.001 96.566 355.12Z" fill="#F29422"/>
<path d="M471.953 358.084C471.9 356.153 471.68 354.201 471.269 352.265C467.369 333.874 477.978 330.406 491.965 324.598C505.946 318.789 507.611 301.537 497.709 287.198C487.804 272.858 505.6 261.335 499.046 239.757C492.495 218.176 469.736 232.53 464.757 252.424C461.18 266.728 442.984 263.633 436.248 282.184C430.395 298.288 450.01 313.161 427.355 320.543C420.12 322.897 416.119 328.619 414.025 335.316C411.612 343.028 412.086 351.027 414.839 358.084H471.953Z" fill="#F29422"/>
<path d="M444.244 358.084L481.56 263.173C481.914 262.273 481.491 261.251 480.618 260.886C479.746 260.522 478.753 260.957 478.399 261.856L440.566 358.084H444.244Z" fill="#405F73"/>
<path d="M133.318 71.1431C133.318 71.1431 134.102 54.0557 124.015 50.7739C108.307 45.6628 103.936 54.0558 101.511 59.6016C98.4036 66.709 99.729 80.6501 109.101 81.996C123.09 84.0061 132.454 75.918 133.318 71.1431Z" fill="#405F73"/>
<path d="M143.443 128.283C151.606 128.283 158.658 122.389 160.33 114.157C161.533 108.228 162.71 102.977 162.71 100.029V99.9529C162.783 99.0208 162.823 98.0888 162.83 97.1707C162.937 83.6874 154.869 59.0615 126.49 62.9763C126.49 62.9763 102.943 65.7446 100.262 89.4524C100.262 89.4524 99.1469 100.39 98.4043 108.31C98.3908 108.451 98.3773 108.59 98.3638 108.728C97.3286 119.196 105.319 128.283 115.531 128.283H143.443Z" fill="#405F73"/>
<path d="M177.134 156.464C177.134 156.464 182.153 197.421 187.884 218.448C187.884 218.448 196.028 214.54 206.687 209.235C218.245 203.482 234.861 192.986 234.861 192.986L239.06 203.409C239.06 203.409 196.14 245.143 181.923 247.505C167.707 249.868 158.993 197.421 158.993 197.421L177.134 156.464Z" fill="#F29422"/>
<path d="M233.98 194.208C233.98 194.208 232.801 188.388 235.328 184.451C237.855 180.512 241.703 173.14 246.222 171.601C250.001 170.313 244.424 176.886 244.257 181.058C244.257 181.058 249.88 180.332 253.936 178.974C257.503 177.781 264.561 176.292 267.834 175.627C268.73 175.445 269.307 176.61 268.615 177.227C267.5 178.224 265.168 179.477 260.344 180.675C260.344 180.675 272.1 178.38 273.32 180.236C274.539 182.09 259.79 184.68 259.79 184.68C259.79 184.68 271.235 183.982 271.532 185.832C271.713 186.959 259.857 189.537 259.857 189.537C259.857 189.537 270.675 189.836 268.059 191.596C267.297 192.108 246.351 194.537 239.059 203.409C239.059 203.409 234.153 198.184 233.98 194.208Z" fill="#FCB2A3"/>
<path d="M104.762 148.397C104.762 148.397 80.7499 155.692 60.0721 160.499C60.0721 160.499 59.5355 151.26 58.994 139.076C58.4068 125.866 59.4634 105.815 59.4634 105.815L48.5681 106.969C48.5681 106.969 33.354 165.717 38.1 179.724C42.8454 193.733 103.109 174.111 103.109 174.111L104.762 148.397Z" fill="#F29422"/>
<path d="M58.8395 107.195C58.8395 107.195 64.3687 105.495 66.5285 101.331C68.6883 97.167 74.6553 88.7822 70.9725 85.6777C69.628 84.544 68.6589 89.4905 65.1765 91.6247C65.1765 91.6247 63.1231 86.1843 62.3522 81.8626C61.6744 78.0614 59.588 70.9576 58.5982 67.6758C58.3266 66.7762 57.0581 66.8086 56.8603 67.7279C56.5408 69.2129 56.5804 71.9232 57.8527 76.864C57.8527 76.864 54.218 65.1196 52.0537 64.8959C49.8895 64.6733 54.6957 79.2717 54.6957 79.2717C54.6957 79.2717 49.8474 68.5695 48.1266 69.1793C47.0789 69.5503 50.5172 81.5218 50.5172 81.5218C50.5172 81.5218 45.1146 71.8595 44.857 75.0671C44.7823 76.0015 52.6735 96.1388 48.5684 106.968C48.5684 106.968 55.3625 108.929 58.8395 107.195Z" fill="#FCB2A3"/>
<path d="M176.237 315.153L176.428 316.029C157.73 329.071 87.792 320.165 87.792 320.165C87.9113 318.653 88.0677 317.073 88.2724 315.437C88.4896 313.615 88.7608 311.727 89.0724 309.776C89.9175 304.53 91.0505 298.858 92.3231 293.022C92.7315 291.185 93.1411 289.319 93.5721 287.446C94.8356 281.877 96.178 276.228 97.4494 270.725C97.8894 268.834 98.3214 266.969 98.7389 265.114C99.3217 262.54 99.8731 260.006 100.402 257.55C101.092 254.285 101.705 251.147 102.22 248.192C102.568 246.204 102.869 244.298 103.101 242.488C103.368 240.573 103.55 238.763 103.662 237.087C102.55 232.855 101.514 228.707 100.548 224.687C100.068 222.638 99.5974 220.635 99.1349 218.656C97.6992 212.322 96.4356 206.292 95.3329 200.644C94.9414 198.592 94.5555 196.595 94.2033 194.647C92.9813 187.986 91.9934 181.958 91.1979 176.698C90.8907 174.601 90.6016 172.645 90.3484 170.798C90.0682 168.778 89.8286 166.909 89.6193 165.214C88.6809 157.756 88.3568 153.527 88.3568 153.527C88.5211 153.391 88.6944 153.267 88.8722 153.133C90.9931 151.581 94.3102 150.119 97.9963 148.823C101.887 147.448 106.191 146.253 109.984 145.308C110.558 145.167 111.123 145.03 111.674 144.897C116.658 143.697 120.384 143 120.384 143C137.343 146.66 142.181 144.306 142.181 144.306L150.802 146.925L151.816 147.293L158.099 149.565L158.353 149.661L169.62 153.748L177.135 156.464L174.217 170.321L172.947 176.374L169.104 194.615L167.842 200.644L164.017 218.822L162.759 224.791L159.593 239.854L160.224 242.73L161.461 248.315L163.422 257.193L165.204 265.223L166.432 270.79L170.123 287.533L171.354 293.068L175.014 309.619L176.237 315.153Z" fill="#F29422"/>
<path d="M151.816 147.293C150.011 158.214 144.871 169.201 134.186 170.388C121.278 171.826 114.586 155.145 111.674 144.897C116.658 143.697 121.824 142.524 121.824 142.524C138.783 146.184 142.055 143.954 142.055 143.954L150.802 146.926L151.816 147.293Z" fill="#FCB2A3"/>
<path d="M108.607 156.466C108.607 158.346 107.128 159.868 105.304 159.868C103.48 159.868 102.002 158.346 102.002 156.466C102.002 154.587 103.48 153.065 105.304 153.065C107.128 153.065 108.607 154.587 108.607 156.466Z" fill="#F29422"/>
<path d="M101.991 173.067C101.991 174.946 100.513 176.469 98.6901 176.469C96.8662 176.469 95.3877 174.946 95.3877 173.067C95.3877 171.189 96.8662 169.665 98.6901 169.665C100.513 169.665 101.991 171.189 101.991 173.067Z" fill="#F29422"/>
<path d="M123.077 180.916C123.077 182.794 121.599 184.317 119.775 184.317C117.951 184.317 116.473 182.794 116.473 180.916C116.473 179.037 117.951 177.512 119.775 177.512C121.599 177.512 123.077 179.037 123.077 180.916Z" fill="#F29422"/>
<path d="M108.371 190.196C109.048 191.94 108.223 193.92 106.53 194.617C104.835 195.314 102.915 194.464 102.238 192.719C101.562 190.976 102.386 188.996 104.079 188.298C105.773 187.601 107.694 188.451 108.371 190.196Z" fill="#F29422"/>
<path d="M136.996 196.48C136.996 198.358 135.518 199.881 133.694 199.881C131.871 199.881 130.392 198.358 130.392 196.48C130.392 194.6 131.871 193.076 133.694 193.076C135.518 193.076 136.996 194.6 136.996 196.48Z" fill="#F29422"/>
<path d="M158.057 203.489C158.057 205.369 156.578 206.892 154.755 206.892C152.931 206.892 151.452 205.369 151.452 203.489C151.452 201.611 152.931 200.088 154.755 200.088C156.578 200.088 158.057 201.611 158.057 203.489Z" fill="#F29422"/>
<path d="M162.295 159.869C162.295 161.748 160.817 163.271 158.994 163.271C157.17 163.271 155.691 161.748 155.691 159.869C155.691 157.989 157.17 156.466 158.994 156.466C160.817 156.466 162.295 157.989 162.295 159.869Z" fill="#F29422"/>
<path d="M138.331 218.205C138.331 220.083 136.853 221.607 135.03 221.607C133.206 221.607 131.728 220.083 131.728 218.205C131.728 216.326 133.206 214.802 135.03 214.802C136.853 214.802 138.331 216.326 138.331 218.205Z" fill="#F29422"/>
<path d="M117.988 228.753C117.988 230.633 116.51 232.156 114.686 232.156C112.863 232.156 111.385 230.633 111.385 228.753C111.385 226.874 112.863 225.352 114.686 225.352C116.51 225.352 117.988 226.874 117.988 228.753Z" fill="#F29422"/>
<path d="M115.618 209.542C115.618 211.422 114.14 212.945 112.316 212.945C110.492 212.945 109.014 211.422 109.014 209.542C109.014 207.663 110.492 206.141 112.316 206.141C114.14 206.141 115.618 207.663 115.618 209.542Z" fill="#F29422"/>
<path d="M148.151 181.804C148.151 183.683 146.672 185.207 144.848 185.207C143.024 185.207 141.546 183.683 141.546 181.804C141.546 179.926 143.024 178.402 144.848 178.402C146.672 178.402 148.151 179.926 148.151 181.804Z" fill="#F29422"/>
<path d="M166.408 177.512C166.408 179.391 164.93 180.916 163.106 180.916C161.282 180.916 159.805 179.391 159.805 177.512C159.805 175.633 161.282 174.111 163.106 174.111C164.93 174.111 166.408 175.633 166.408 177.512Z" fill="#F29422"/>
<path d="M154.755 223.833C154.755 225.711 153.278 227.236 151.453 227.236C149.63 227.236 148.151 225.711 148.151 223.833C148.151 221.954 149.63 220.431 151.453 220.431C153.278 220.431 154.755 221.954 154.755 223.833Z" fill="#F29422"/>
<path d="M155.641 250.751C155.641 252.63 154.162 254.155 152.339 254.155C150.515 254.155 149.036 252.63 149.036 250.751C149.036 248.872 150.515 247.349 152.339 247.349C154.162 247.349 155.641 248.872 155.641 250.751Z" fill="#F29422"/>
<path d="M138.834 239.52C139.51 241.265 138.686 243.245 136.992 243.942C135.299 244.64 133.377 243.79 132.701 242.044C132.023 240.299 132.848 238.319 134.542 237.624C136.236 236.926 138.157 237.776 138.834 239.52Z" fill="#F29422"/>
<path d="M116.352 249.489C117.028 251.235 116.204 253.214 114.51 253.911C112.817 254.608 110.896 253.758 110.219 252.014C109.542 250.269 110.367 248.289 112.061 247.592C113.754 246.896 115.676 247.744 116.352 249.489Z" fill="#F29422"/>
<path d="M183.233 358.059L182.549 353.82L179.884 337.378L178.971 331.744L176.427 316.028L171.802 316.243L110.49 319.109L87.7928 320.164L86.3334 332.387L85.6504 338.081L83.6357 354.965L83.2656 358.059H183.233Z" fill="#F29422"/>
<path d="M183.23 358.059L182.603 354.229L182.551 353.827L182.109 351.12L181.667 348.44L179.872 337.371L179.351 334.101L178.962 331.742L178.909 331.394L176.594 317.056L176.438 316.037L176.23 315.153L176.048 314.377L175.008 309.632L172.952 300.359L172.354 297.707L171.34 293.07L170.117 287.521L169.284 283.717L168.685 281.062L166.423 270.798L165.59 267.047L165.201 265.223L165.019 264.393L163.431 257.184C138.512 264.768 112.108 260.265 100.402 257.558C99.8807 259.997 99.3091 262.543 98.7364 265.117C98.607 265.679 98.4765 266.241 98.3471 266.804C98.1389 267.689 97.9308 268.573 97.7226 269.458C97.6438 269.887 97.5403 270.288 97.4357 270.718C96.4737 274.925 95.4588 279.213 94.4708 283.474C94.2627 284.359 94.0804 285.243 93.8722 286.101C93.7676 286.557 93.6641 286.986 93.5606 287.44C93.1442 289.318 92.7279 291.194 92.3116 293.016C91.7918 295.454 91.2967 297.84 90.8286 300.198C90.6464 301.082 90.4641 301.94 90.3088 302.798C89.8407 305.184 89.4244 307.515 89.0599 309.766C88.7471 311.723 88.4883 313.599 88.279 315.449C88.2013 316.011 88.1496 316.573 88.0708 317.109C87.9932 318.02 87.8897 318.906 87.8109 319.79C87.8109 319.924 87.785 320.031 87.785 320.165L86.3288 332.387L86.0944 334.289L85.7824 336.942L85.6524 338.067L84.0393 351.441L83.7272 354.121L83.6235 354.979L83.2627 358.059H183.23Z" fill="#405F73"/>
<path d="M153.072 101.585C153.072 101.585 157.125 96.2941 160.141 100.669C163.154 105.044 158.893 117.967 151.513 114.813L153.072 101.585Z" fill="#FCB2A3"/>
<path d="M153.124 110.82C153.397 110.82 153.647 110.643 153.725 110.373C154.868 106.384 159.091 104.766 159.134 104.751C159.455 104.63 159.617 104.278 159.494 103.963C159.374 103.648 159.013 103.49 158.692 103.608C158.495 103.681 153.841 105.45 152.525 110.044C152.431 110.369 152.624 110.705 152.955 110.796L153.124 110.82Z" fill="#FCB2A3"/>
<path d="M157.387 108.809C157.503 108.809 157.62 108.778 157.724 108.712C158.013 108.529 158.097 108.152 157.911 107.868C157.879 107.822 157.132 106.705 155.57 106.021C155.257 105.883 154.887 106.021 154.746 106.329C154.605 106.637 154.746 106.997 155.061 107.135C156.269 107.665 156.857 108.522 156.862 108.529C156.982 108.711 157.182 108.809 157.387 108.809Z" fill="#FCB2A3"/>
<path d="M121.824 128.618V144.47C121.824 144.47 128.976 150.156 134.554 150.65C140.129 151.151 142.055 144.374 142.055 144.374V129.62L121.824 128.618Z" fill="#FCB2A3"/>
<path d="M121.824 130.171V136.495C125.568 140.776 132.214 142.292 142.054 140.795L142.055 131.174L121.824 130.171Z" fill="#FCB2A3"/>
<path d="M155.508 107.612C155.33 109.142 155.121 110.7 154.853 112.251C153.086 122.559 146.757 133.695 138.765 135.564C121.508 139.599 114.342 125.635 111.583 115.333C111.278 114.188 111.85 112.877 111.609 111.522C111.036 108.312 109.777 104.665 109.491 101.069C109.294 98.5756 109.155 96.118 109.053 93.8957C108.774 87.6311 112.295 81.8743 117.8 79.6254C125.733 76.3749 137.78 73.8002 149.19 80.6954C153.404 83.2422 156.048 87.9557 156.144 93.1167C156.213 97.0593 156.118 102.213 155.508 107.612Z" fill="#FCB2A3"/>
<path d="M133.624 115.589C133.303 115.589 133.018 115.35 132.963 115.012C132.902 114.636 133.148 114.28 133.513 114.217L135.815 113.818L132.645 105.117C132.514 104.76 132.69 104.361 133.035 104.227C133.382 104.095 133.769 104.274 133.898 104.631L137.643 114.902L133.735 115.578L133.624 115.589Z" fill="#FCB2A3"/>
<path d="M141.881 104.074C141.881 105.596 142.641 106.829 143.58 106.829C144.519 106.829 145.28 105.596 145.28 104.074C145.28 102.553 144.519 101.319 143.58 101.319C142.641 101.319 141.881 102.553 141.881 104.074Z" fill="#405F73"/>
<path d="M123.092 104.074C123.092 105.596 123.852 106.829 124.792 106.829C125.73 106.829 126.491 105.596 126.491 104.074C126.491 102.553 125.73 101.319 124.792 101.319C123.852 101.319 123.092 102.553 123.092 104.074Z" fill="#405F73"/>
<path d="M148.579 96.8495C147.211 96.5748 144.448 96.1215 141.506 96.2282C140.73 96.256 140.109 96.8588 140.217 97.4929L140.22 97.5091C140.305 98.0169 140.832 98.3577 141.452 98.309C143.458 98.1537 148.705 98.1873 151.147 98.9362C151.216 98.5722 150.978 98.185 150.634 97.8465C150.112 97.3329 149.377 97.0095 148.579 96.8495Z" fill="#405F73"/>
<path d="M121.249 97.1797C122.612 96.8864 125.37 96.3949 128.313 96.4598C129.089 96.4772 129.718 97.0696 129.62 97.706L129.616 97.7222C129.538 98.2311 129.015 98.5789 128.396 98.5395C126.387 98.412 121.14 98.5198 118.709 99.3035C118.636 98.9395 118.867 98.55 119.207 98.2068C119.723 97.6863 120.453 97.3524 121.249 97.1797Z" fill="#405F73"/>
<path d="M141.881 119.701C141.384 122.121 139.733 126.575 134.169 126.575C128.593 126.575 127.029 122.505 126.491 119.701H141.881Z" fill="white"/>
<path d="M134.249 130.738C135.855 130.738 137.272 129.846 137.332 129.808C137.64 129.611 137.736 129.195 137.546 128.876C137.355 128.558 136.952 128.46 136.642 128.656C136.63 128.663 135.474 129.383 134.249 129.383C132.924 129.383 131.736 128.66 131.725 128.652C131.414 128.46 131.01 128.564 130.823 128.884C130.636 129.203 130.735 129.618 131.046 129.812C131.106 129.85 132.549 130.738 134.249 130.738Z" fill="#FCB2A3"/>
<path d="M156.207 105.994C156.045 106.133 155.891 106.084 155.745 105.813C153.465 101.673 155.607 93.4133 148.862 90.2463C143.724 87.8316 141.88 82.8781 141.88 82.8781C140.706 84.9497 137.645 86.8497 137.645 86.8497C137.645 86.8497 129.886 91.5864 121.823 94.7871C119.427 95.7388 117.72 96.7045 116.524 97.5333L116.668 97.575C116.668 97.575 114.436 101.311 116.069 107.12C117.702 112.925 115.602 122.506 111.975 124.717C112.039 124.553 114.76 117.929 113.222 112.525C112.336 109.426 112.345 104.496 111.505 101.542C110.575 100.882 108.426 99.7695 107.7 99.3244C107.491 96.7833 107.343 94.2781 107.237 92.0141C106.942 85.6278 110.653 79.7597 116.458 77.4644C124.819 74.1524 137.517 71.5302 149.546 78.5576C153.988 81.1531 156.776 85.9582 156.879 91.2189C156.952 95.2357 156.85 100.489 156.207 105.994Z" fill="#405F73"/>
<path d="M111.504 101.542C111.504 101.542 106.791 95.6495 104.009 99.8981C101.228 104.147 105.335 117.172 112.144 114.108L111.504 101.542Z" fill="#FCB2A3"/>
<path d="M110.484 109.755C110.233 109.755 110.002 109.584 109.93 109.322C108.875 105.448 104.979 103.877 104.94 103.862C104.643 103.745 104.494 103.403 104.607 103.097C104.719 102.791 105.051 102.636 105.347 102.752C105.53 102.823 109.823 104.54 111.038 109.002C111.124 109.317 110.946 109.644 110.64 109.732L110.484 109.755Z" fill="#FCB2A3"/>
<path d="M106.551 107.803C106.444 107.803 106.337 107.773 106.24 107.708C105.974 107.531 105.896 107.164 106.068 106.889C106.096 106.843 106.786 105.761 108.227 105.095C108.517 104.961 108.859 105.095 108.988 105.394C109.117 105.693 108.988 106.043 108.698 106.178C107.583 106.692 107.04 107.523 107.036 107.531C106.926 107.707 106.741 107.803 106.551 107.803Z" fill="#FCB2A3"/>
<path d="M361.162 229.486C350.194 237.597 333.033 243.163 333.033 243.163L329.519 230.143L326.779 219.985L324.844 212.824L305.176 212.81C306.241 216.608 307.341 220.488 308.447 224.308C309.866 229.236 311.281 234.061 312.627 238.511C314.524 244.773 316.276 250.279 317.687 254.213C318.016 255.131 318.399 256.131 318.828 257.198C321.456 264.514 323.579 272.449 333.614 267.47C342.446 263.088 354.425 257.011 360.41 252.978L361.162 229.486Z" fill="#FCB2A3"/>
<path d="M308.447 224.308C309.867 229.234 311.28 234.061 312.627 238.51C320.655 237.634 326.214 233.534 329.521 230.143L326.781 219.985L308.447 224.308Z" fill="#FCB2A3"/>
<path d="M304.272 153.242C304.272 153.242 324.79 203.657 333.614 219.991C333.614 219.991 321.248 230.824 309.202 231.118C309.202 231.118 302.26 175.768 304.272 153.242Z" fill="#535461"/>
<path d="M256.232 358.097C256.439 354.568 256.633 351.209 256.811 348.097C257.538 335.371 258.005 326.684 258.005 326.684L253.166 326.462L250.44 326.334L217.552 324.828C217.552 324.828 216.954 334.543 216.248 348.81C216.103 351.729 215.954 354.84 215.805 358.097H256.232Z" fill="#F29422"/>
<path d="M253.166 326.462L258.005 326.684C258.005 326.684 257.538 335.371 256.811 348.097C244.175 349.182 230.379 349.624 216.248 348.81C216.954 334.543 217.552 324.828 217.552 324.828L250.44 326.334L253.166 326.462Z" fill="#F29422"/>
<path d="M251.439 358.097C252.202 344.502 252.829 332.856 253.168 326.463L250.442 326.335C250.1 332.759 249.472 344.457 248.707 358.097H251.439Z" fill="#F29422"/>
<path d="M266.832 358.097H307.258C307.11 354.84 306.96 351.729 306.816 348.81C306.112 334.543 305.512 324.828 305.512 324.828L272.624 326.334L269.898 326.462L265.06 326.684C265.06 326.684 265.527 335.371 266.253 348.097C266.431 351.209 266.626 354.568 266.832 358.097Z" fill="#F29422"/>
<path d="M269.898 326.462L265.06 326.684C265.06 326.684 265.527 335.371 266.253 348.097C278.889 349.182 292.685 349.624 306.816 348.81C306.112 334.543 305.512 324.828 305.512 324.828L272.624 326.334L269.898 326.462Z" fill="#F29422"/>
<path d="M274.357 358.097C273.592 344.457 272.964 332.759 272.623 326.335L269.896 326.463C270.235 332.856 270.861 344.502 271.625 358.097H274.357Z" fill="#F29422"/>
<path d="M210.415 300.67C210.41 301.368 210.415 302.056 210.415 302.734C210.43 315.126 210.489 324.729 210.548 329.445C222.166 332.687 233.782 334.782 245.404 335.75C245.934 335.79 246.454 335.832 246.983 335.873C247.265 335.892 247.547 335.913 247.829 335.929C248.452 335.975 249.081 336.015 249.699 336.045C250.392 336.092 251.08 336.127 251.777 336.164C259.684 336.54 267.589 336.393 275.502 335.725C277.098 335.587 278.688 335.429 280.285 335.251C280.389 335.241 280.488 335.23 280.592 335.22C280.998 335.174 281.404 335.123 281.815 335.072C282.063 335.041 282.309 335.011 282.551 334.98C291.749 333.85 300.948 331.998 310.149 329.445C310.174 327.303 310.184 324.128 310.184 320.127C310.184 319.382 310.184 318.617 310.18 317.817V317.813C310.174 312.087 310.14 304.962 310.081 296.907C310.075 296.219 310.071 295.526 310.065 294.824C310.021 289.461 309.966 283.716 309.897 277.726C309.887 277.033 309.883 276.339 309.873 275.642C309.798 269.499 309.709 263.117 309.605 256.638C309.541 252.681 309.472 248.691 309.393 244.694C309.313 240.647 309.229 236.595 309.136 232.567C309.116 231.691 309.096 230.815 309.07 229.937C308.171 191.853 306.612 156.85 304.034 152.946C302.248 150.243 298.156 147.068 293.337 143.866C292.75 143.479 292.15 143.086 291.541 142.694C289.488 141.374 272.74 135.512 270.613 134.223L252.91 132.947C252.801 133.015 235.875 138.897 235.767 138.958C235.039 139.386 234.302 139.819 233.575 140.253C227.307 143.979 221.122 147.904 217.559 151.283C217.04 151.772 216.575 152.252 216.179 152.721C215.863 153.093 215.58 153.454 215.353 153.811C215.14 154.133 214.932 154.674 214.734 155.412C212.592 163.431 211.469 194.943 210.91 229.229C210.87 231.686 210.835 234.159 210.8 236.635C210.786 237.721 210.771 238.812 210.757 239.903C210.741 240.652 210.732 241.405 210.726 242.155C210.722 242.533 210.716 242.904 210.712 243.282C210.687 245.148 210.667 247.008 210.652 248.858C210.637 250.231 210.623 251.595 210.608 252.962C210.449 270.232 210.4 287.002 210.415 300.67Z" fill="#535461"/>
<path d="M178.758 349.638C178.323 354.505 184.077 351.866 182.449 342.002C180.825 332.138 185.437 323.208 187.426 323.493C189.42 323.783 185.778 334.264 187.55 338.042C189.316 341.818 191.602 334.478 193.878 330.028C196.238 325.404 196.099 315.316 195.026 308.118C193.951 300.916 206.617 257.185 206.682 244.512L208.225 239.139L213.876 219.469L222.722 188.664C222.722 188.664 217.424 165.35 208.488 167.353C208.488 167.353 203.758 183.593 198.702 201.908C197.846 205.018 196.98 208.188 196.124 211.349C192.522 224.628 189.138 237.738 187.565 245.516C183.408 266.055 183.087 308.745 183.087 308.745C183.087 308.745 175.755 324.431 175.582 331.408C175.398 338.851 179.188 344.77 178.758 349.638Z" fill="#FCB2A3"/>
<path d="M196.124 211.349L208.225 239.139L213.876 219.469L198.702 201.908C197.846 205.018 196.98 208.188 196.124 211.349Z" fill="#FCB2A3"/>
<path d="M195.523 203.07C200.833 212.45 206.232 221.778 211.609 231.122C213.38 225.01 215.215 219.142 216.938 213.749L216.952 213.708C217.64 211.553 218.313 209.474 218.956 207.484L218.991 207.382C219.214 206.685 219.431 205.997 219.654 205.322V205.319C222.222 197.32 224.211 190.964 224.779 187.258C226.314 177.283 222.133 157.739 216.245 153.884C216.092 154.237 215.627 153.15 215.35 153.814C214.316 156.276 209.724 162.357 207.453 168.28C207.161 169.035 206.864 169.819 206.558 170.619C203.267 179.332 199.246 190.663 195.523 203.07Z" fill="#535461"/>
<path d="M260.978 151.186C268.644 151.186 274.048 143.979 274.275 143.673C274.598 143.236 274.537 142.593 274.141 142.239C273.743 141.883 273.161 141.95 272.839 142.386C272.769 142.481 267.737 149.147 260.978 149.147C254.299 149.147 250.226 141.602 250.186 141.526C249.928 141.04 249.361 140.875 248.921 141.158C248.48 141.441 248.33 142.064 248.586 142.551C248.771 142.903 253.221 151.186 260.978 151.186Z" fill="#F29422"/>
<path d="M293.391 220.232C293.533 220.232 293.677 220.196 293.812 220.121C294.271 219.863 294.455 219.245 294.222 218.739L290.879 211.46C290.646 210.953 290.085 210.75 289.625 211.008C289.166 211.264 288.981 211.883 289.214 212.388L292.558 219.668C292.721 220.025 293.05 220.232 293.391 220.232Z" fill="#F29422"/>
<path d="M300.357 214.269C300.478 214.351 300.617 214.403 300.768 214.419C301.281 214.469 301.734 214.052 301.78 213.485L302.435 205.361C302.481 204.795 302.101 204.296 301.588 204.246C301.075 204.195 300.622 204.613 300.577 205.178L299.922 213.304C299.888 213.704 300.068 214.069 300.357 214.269Z" fill="#F29422"/>
<path d="M282.396 201.669C282.845 201.669 283.24 201.313 283.316 200.809L284.524 192.76C284.607 192.2 284.264 191.67 283.755 191.577C283.244 191.486 282.767 191.864 282.682 192.425L281.474 200.474C281.391 201.033 281.735 201.562 282.244 201.655L282.396 201.669Z" fill="#F29422"/>
<path d="M252.363 204.664C252.525 204.664 252.689 204.618 252.837 204.52C253.28 204.232 253.428 203.601 253.164 203.113L249.394 196.094C249.132 195.605 248.559 195.442 248.116 195.732C247.672 196.022 247.526 196.651 247.788 197.141L251.56 204.161C251.733 204.484 252.044 204.664 252.363 204.664Z" fill="#F29422"/>
<path d="M289.259 173.201C289.433 173.201 289.609 173.149 289.764 173.036L295.982 168.606C296.414 168.297 296.539 167.662 296.259 167.185C295.979 166.708 295.402 166.571 294.968 166.88L288.752 171.31C288.32 171.619 288.196 172.254 288.476 172.73C288.654 173.035 288.954 173.201 289.259 173.201Z" fill="#F29422"/>
<path d="M261.566 238.6C261.707 238.6 261.851 238.564 261.986 238.489C262.445 238.232 262.629 237.613 262.397 237.107L259.053 229.828C258.82 229.323 258.26 229.12 257.8 229.376C257.341 229.631 257.156 230.25 257.389 230.757L260.733 238.035C260.896 238.394 261.225 238.6 261.566 238.6Z" fill="#F29422"/>
<path d="M276.254 178.677C276.566 178.677 276.868 178.507 277.047 178.195C277.32 177.714 277.188 177.079 276.75 176.777L270.475 172.449C270.039 172.149 269.463 172.292 269.189 172.775C268.916 173.256 269.048 173.891 269.485 174.192L275.76 178.521C275.914 178.626 276.085 178.677 276.254 178.677Z" fill="#F29422"/>
<path d="M291.179 148.411C291.164 148.61 291.202 148.804 291.286 148.966C291.429 149.267 291.711 149.482 292.044 149.507C292.557 149.548 293.002 149.119 293.038 148.553L293.335 143.869C292.747 143.481 292.15 143.088 291.539 142.697L291.179 148.411Z" fill="#F29422"/>
<path d="M299.545 193.072C299.856 193.072 300.16 192.901 300.336 192.59C300.61 192.108 300.478 191.473 300.04 191.172L293.765 186.843C293.329 186.543 292.754 186.687 292.479 187.169C292.206 187.65 292.338 188.285 292.775 188.587L299.05 192.915C299.204 193.021 299.375 193.072 299.545 193.072Z" fill="#F29422"/>
<path d="M249.501 157.551C249.678 157.551 249.856 157.498 250.014 157.382C250.444 157.07 250.562 156.432 250.28 155.958L246.701 149.974C246.418 149.5 245.839 149.368 245.409 149.681C244.979 149.994 244.86 150.631 245.143 151.106L248.721 157.09C248.9 157.389 249.198 157.551 249.501 157.551Z" fill="#F29422"/>
<path d="M246.293 260.918C246.538 260.918 246.782 260.814 246.966 260.603L252.093 254.718C252.45 254.308 252.438 253.657 252.066 253.264C251.695 252.87 251.104 252.884 250.747 253.293L245.62 259.179C245.263 259.588 245.276 260.24 245.647 260.632C245.828 260.824 246.06 260.918 246.293 260.918Z" fill="#F29422"/>
<path d="M265.134 259.696C265.378 259.696 265.623 259.589 265.806 259.378L270.935 253.494C271.291 253.085 271.279 252.433 270.908 252.04C270.534 251.647 269.946 251.661 269.589 252.072L264.461 257.956C264.105 258.364 264.116 259.016 264.487 259.409C264.67 259.601 264.901 259.696 265.134 259.696Z" fill="#F29422"/>
<path d="M278.682 299.473C278.767 299.222 278.763 298.932 278.648 298.669L275.448 291.312C275.224 290.801 274.667 290.584 274.203 290.83C273.739 291.076 273.543 291.689 273.766 292.201L276.966 299.558C277.19 300.07 277.747 300.285 278.211 300.04C278.438 299.921 278.598 299.713 278.682 299.473Z" fill="#F29422"/>
<path d="M224.612 323.747C224.697 323.494 224.693 323.204 224.579 322.941L221.377 315.586C221.155 315.072 220.598 314.858 220.133 315.104C219.668 315.349 219.473 315.961 219.696 316.474L222.897 323.83C223.118 324.342 223.675 324.558 224.141 324.313C224.367 324.193 224.529 323.987 224.612 323.747Z" fill="#F29422"/>
<path d="M247.83 335.931C248.453 335.977 249.079 336.018 249.698 336.048L250.35 331.465C250.429 330.905 250.083 330.379 249.574 330.293C249.064 330.206 248.588 330.589 248.51 331.149L247.83 335.931Z" fill="#F29422"/>
<path d="M240.382 322.081C240.584 321.927 240.729 321.686 240.77 321.397L241.915 313.338C241.996 312.777 241.647 312.252 241.139 312.164C240.629 312.076 240.153 312.458 240.073 313.02L238.926 321.08C238.847 321.641 239.195 322.166 239.704 322.255C239.951 322.298 240.192 322.228 240.382 322.081Z" fill="#F29422"/>
<path d="M285.398 254.69C285.558 254.69 285.719 254.645 285.865 254.552C286.312 254.268 286.464 253.639 286.205 253.147L282.496 246.088C282.239 245.596 281.668 245.429 281.222 245.713C280.776 245.996 280.623 246.626 280.882 247.117L284.591 254.178C284.764 254.507 285.076 254.69 285.398 254.69Z" fill="#F29422"/>
<path d="M274.509 237.043C274.847 237.043 275.173 236.84 275.338 236.486L278.733 229.236C278.969 228.733 278.789 228.112 278.331 227.852C277.876 227.59 277.312 227.789 277.075 228.294L273.68 235.544C273.444 236.047 273.625 236.669 274.082 236.928C274.219 237.007 274.365 237.043 274.509 237.043Z" fill="#F29422"/>
<path d="M304.003 235.98C304.099 236.107 304.224 236.204 304.354 236.265C304.668 236.408 305.038 236.357 305.316 236.102L309.132 232.569C309.114 231.693 309.095 230.817 309.071 229.939L304.113 234.528C303.72 234.894 303.67 235.542 304.003 235.98Z" fill="#F29422"/>
<path d="M274.558 160.126C274.895 160.126 275.222 159.923 275.388 159.57L278.783 152.32C279.019 151.815 278.838 151.195 278.38 150.935C277.924 150.675 277.361 150.873 277.124 151.377L273.729 158.627C273.492 159.131 273.673 159.752 274.131 160.012C274.267 160.089 274.414 160.126 274.558 160.126Z" fill="#F29422"/>
<path d="M252.801 186.687L252.979 186.669C253.485 186.56 253.816 186.021 253.718 185.465L252.314 177.454C252.217 176.897 251.726 176.534 251.221 176.639C250.715 176.747 250.384 177.287 250.482 177.844L251.886 185.854C251.972 186.346 252.363 186.687 252.801 186.687Z" fill="#F29422"/>
<path d="M264.913 193.72L265.092 193.701C265.598 193.593 265.929 193.054 265.831 192.498L264.427 184.487C264.33 183.929 263.839 183.567 263.335 183.674C262.828 183.78 262.497 184.319 262.595 184.877L264 192.887C264.085 193.379 264.477 193.72 264.913 193.72Z" fill="#F29422"/>
<path d="M256.236 167.292C256.545 167.292 256.847 167.124 257.025 166.816L260.992 159.929C261.268 159.449 261.14 158.814 260.704 158.51C260.268 158.205 259.694 158.348 259.417 158.826L255.45 165.713C255.173 166.193 255.301 166.829 255.737 167.132C255.892 167.241 256.065 167.292 256.236 167.292Z" fill="#F29422"/>
<path d="M292.633 238.316C292.888 238.017 292.964 237.564 292.795 237.171L289.606 229.808C289.383 229.296 288.827 229.079 288.361 229.324C287.896 229.568 287.699 230.182 287.923 230.693L291.11 238.056C291.332 238.568 291.889 238.786 292.353 238.541C292.463 238.484 292.556 238.408 292.633 238.316Z" fill="#F29422"/>
<path d="M268.63 216.956C269.003 216.956 269.356 216.708 269.5 216.301L272.197 208.704C272.385 208.176 272.149 207.58 271.668 207.373C271.189 207.166 270.648 207.427 270.46 207.955L267.763 215.553C267.575 216.082 267.811 216.676 268.291 216.884C268.403 216.933 268.517 216.956 268.63 216.956Z" fill="#F29422"/>
<path d="M238.987 263.876C239.129 263.876 239.273 263.841 239.408 263.766C239.868 263.51 240.051 262.892 239.818 262.384L236.476 255.105C236.244 254.599 235.682 254.397 235.222 254.653C234.762 254.909 234.578 255.527 234.81 256.035L238.154 263.313C238.319 263.671 238.647 263.876 238.987 263.876Z" fill="#F29422"/>
<path d="M288.117 316.191C288.118 316.347 288.153 316.506 288.223 316.655C288.459 317.158 289.023 317.355 289.48 317.093L296.053 313.34C296.511 313.081 296.691 312.459 296.454 311.955C296.216 311.451 295.653 311.254 295.195 311.516L288.622 315.268C288.298 315.451 288.114 315.817 288.117 316.191Z" fill="#F29422"/>
<path d="M305.964 320.858C305.964 321.016 305.995 321.173 306.066 321.322C306.302 321.826 306.866 322.019 307.324 321.76L310.182 320.129C310.182 319.385 310.182 318.619 310.178 317.818L306.468 319.935C306.144 320.118 305.959 320.485 305.964 320.858Z" fill="#F29422"/>
<path d="M278.342 329.931L280.59 335.222C280.997 335.176 281.405 335.125 281.817 335.074C282.062 335.044 282.306 335.013 282.551 334.982L280.031 329.06C279.814 328.544 279.258 328.32 278.79 328.565C278.323 328.805 278.12 329.415 278.342 329.931Z" fill="#F29422"/>
<path d="M226.854 245.316C227.303 245.316 227.698 244.958 227.773 244.454L228.981 236.406C229.065 235.846 228.721 235.317 228.212 235.223C227.703 235.132 227.224 235.511 227.14 236.071L225.933 244.119C225.848 244.68 226.193 245.209 226.7 245.302L226.854 245.316Z" fill="#F29422"/>
<path d="M226.086 185.926C226.246 185.926 226.411 185.88 226.559 185.782C227.003 185.494 227.15 184.863 226.887 184.374L223.115 177.356C222.853 176.866 222.281 176.704 221.838 176.994C221.395 177.283 221.247 177.913 221.511 178.402L225.281 185.422C225.455 185.746 225.766 185.926 226.086 185.926Z" fill="#F29422"/>
<path d="M238.211 214.459C238.385 214.459 238.56 214.405 238.717 214.294L244.934 209.863C245.366 209.555 245.491 208.919 245.211 208.442C244.93 207.966 244.353 207.83 243.921 208.137L237.704 212.568C237.271 212.876 237.147 213.512 237.426 213.989C237.605 214.293 237.905 214.459 238.211 214.459Z" fill="#F29422"/>
<path d="M304.032 262.312C304.174 262.312 304.318 262.277 304.453 262.201C304.912 261.945 305.097 261.327 304.864 260.821L301.521 253.542C301.288 253.035 300.728 252.832 300.268 253.09C299.807 253.345 299.624 253.962 299.857 254.47L303.2 261.749C303.363 262.107 303.691 262.312 304.032 262.312Z" fill="#F29422"/>
<path d="M227.619 225.516C227.93 225.516 228.234 225.345 228.41 225.033C228.684 224.551 228.551 223.918 228.116 223.617L221.84 219.287C221.403 218.988 220.828 219.132 220.554 219.614C220.281 220.095 220.414 220.729 220.849 221.03L227.124 225.359C227.278 225.464 227.449 225.516 227.619 225.516Z" fill="#F29422"/>
<path d="M242.664 235.812C242.892 236.044 243.221 236.146 243.542 236.05C244.04 235.9 244.332 235.336 244.198 234.787L242.255 226.916C242.119 226.369 241.608 226.044 241.111 226.193C240.612 226.342 240.32 226.908 240.455 227.455L242.397 235.327C242.445 235.52 242.54 235.686 242.664 235.812Z" fill="#F29422"/>
<path d="M216.178 152.723L217.801 155.434C217.981 155.73 218.278 155.894 218.583 155.894C218.759 155.894 218.934 155.843 219.092 155.725C219.523 155.415 219.642 154.777 219.36 154.303L217.556 151.286C217.038 151.775 216.575 152.255 216.178 152.723Z" fill="#F29422"/>
<path d="M209.082 170.619L210.807 173.505C210.988 173.806 211.284 173.97 211.589 173.97C211.765 173.97 211.941 173.913 212.103 173.8C212.533 173.485 212.649 172.847 212.366 172.374L209.919 168.28C209.647 169.035 209.369 169.82 209.082 170.619Z" fill="#F29422"/>
<path d="M289.773 287.727C290.019 287.727 290.263 287.622 290.446 287.411L295.573 281.527C295.93 281.117 295.918 280.466 295.547 280.073C295.175 279.679 294.584 279.693 294.227 280.102L289.099 285.987C288.743 286.397 288.755 287.049 289.128 287.44C289.308 287.632 289.54 287.727 289.773 287.727Z" fill="#F29422"/>
<path d="M255.657 308.302C255.902 308.302 256.147 308.195 256.33 307.984L261.457 302.1C261.814 301.69 261.803 301.041 261.432 300.646C261.06 300.252 260.468 300.266 260.112 300.677L254.984 306.562C254.628 306.971 254.64 307.622 255.011 308.013C255.192 308.206 255.425 308.302 255.657 308.302Z" fill="#F29422"/>
<path d="M246.177 300.13C246.331 299.92 246.41 299.644 246.376 299.354L245.451 291.259C245.387 290.697 244.921 290.297 244.41 290.369C243.898 290.438 243.536 290.953 243.601 291.516L244.526 299.61C244.589 300.175 245.056 300.574 245.568 300.502C245.817 300.468 246.031 300.329 246.177 300.13Z" fill="#F29422"/>
<path d="M265.608 322.942C265.852 322.942 266.096 322.837 266.28 322.626L271.407 316.742C271.764 316.331 271.751 315.682 271.38 315.289C271.009 314.894 270.418 314.909 270.061 315.318L264.934 321.202C264.577 321.613 264.589 322.262 264.961 322.656C265.141 322.847 265.375 322.942 265.608 322.942Z" fill="#F29422"/>
<path d="M210.414 300.671C210.41 301.37 210.414 302.058 210.414 302.737L216.201 303.271C216.715 303.323 217.168 302.899 217.21 302.333C217.256 301.768 216.873 301.273 216.358 301.222L210.414 300.671Z" fill="#F29422"/>
<path d="M278.192 275.353C278.437 275.353 278.681 275.246 278.865 275.036L283.991 269.151C284.349 268.743 284.336 268.091 283.965 267.698C283.593 267.304 283.003 267.318 282.646 267.728L277.518 273.613C277.161 274.022 277.175 274.673 277.546 275.066C277.726 275.258 277.959 275.353 278.192 275.353Z" fill="#F29422"/>
<path d="M253.525 272.795C253.54 273.064 253.653 273.328 253.855 273.514L259.522 278.764C259.917 279.13 260.504 279.074 260.836 278.639C261.168 278.205 261.116 277.556 260.722 277.191L255.056 271.94C254.662 271.575 254.074 271.632 253.742 272.066C253.58 272.277 253.509 272.54 253.525 272.795Z" fill="#F29422"/>
<path d="M226.525 301.676C226.683 301.676 226.844 301.631 226.991 301.537C227.437 301.252 227.589 300.623 227.331 300.133L223.623 293.072C223.364 292.58 222.795 292.412 222.348 292.698C221.901 292.982 221.749 293.611 222.008 294.101L225.717 301.162C225.889 301.492 226.203 301.676 226.525 301.676Z" fill="#F29422"/>
<path d="M220.104 280.689C220.442 280.689 220.768 280.486 220.933 280.132L224.328 272.882C224.564 272.378 224.384 271.758 223.927 271.497C223.471 271.236 222.907 271.436 222.669 271.939L219.276 279.189C219.04 279.694 219.22 280.314 219.678 280.575C219.814 280.652 219.96 280.689 220.104 280.689Z" fill="#F29422"/>
<path d="M230.23 198.373C230.569 198.373 230.894 198.171 231.06 197.817L234.454 190.567C234.691 190.061 234.51 189.441 234.053 189.183C233.597 188.922 233.033 189.119 232.797 189.624L229.402 196.873C229.166 197.378 229.346 197.999 229.804 198.259C229.94 198.336 230.086 198.373 230.23 198.373Z" fill="#F29422"/>
<path d="M226.523 167.948L226.701 167.93C227.207 167.822 227.538 167.283 227.44 166.725L226.037 158.716C225.939 158.158 225.449 157.795 224.944 157.901C224.438 158.009 224.108 158.548 224.204 159.106L225.609 167.115C225.695 167.608 226.086 167.948 226.523 167.948Z" fill="#F29422"/>
<path d="M209.474 195.588L209.653 195.57C210.159 195.462 210.489 194.923 210.393 194.365L208.988 186.356C208.891 185.799 208.4 185.435 207.896 185.541C207.39 185.65 207.059 186.189 207.155 186.746L208.56 194.755C208.646 195.248 209.037 195.588 209.474 195.588Z" fill="#F29422"/>
<path d="M238.635 174.982L238.813 174.963C239.319 174.855 239.65 174.315 239.552 173.759L238.148 165.749C238.051 165.191 237.56 164.829 237.055 164.935C236.549 165.042 236.218 165.581 236.316 166.139L237.72 174.148C237.807 174.641 238.197 174.982 238.635 174.982Z" fill="#F29422"/>
<path d="M233.076 147.08C233.258 147.126 233.433 147.111 233.595 147.05C233.887 146.937 234.123 146.667 234.197 146.316L235.765 138.959C235.039 139.388 234.303 139.822 233.572 140.255L232.383 145.842C232.263 146.397 232.573 146.948 233.076 147.08Z" fill="#F29422"/>
<path d="M211.734 207.973C212.042 207.973 212.343 207.803 212.521 207.496L216.49 200.608C216.765 200.129 216.637 199.493 216.202 199.189C215.765 198.885 215.19 199.028 214.913 199.507L210.946 206.393C210.67 206.873 210.799 207.508 211.234 207.813C211.389 207.922 211.563 207.973 211.734 207.973Z" fill="#F29422"/>
<path d="M238.23 281.963C238.484 281.663 238.561 281.209 238.391 280.816L235.202 273.454C234.98 272.943 234.423 272.725 233.959 272.969C233.492 273.214 233.296 273.827 233.519 274.34L236.706 281.702C236.928 282.214 237.485 282.431 237.95 282.187C238.059 282.13 238.152 282.053 238.23 281.963Z" fill="#F29422"/>
<path d="M303.85 295.797L310.082 296.909C310.077 296.222 310.071 295.528 310.062 294.825L304.15 293.764C303.641 293.677 303.162 294.055 303.082 294.616C302.999 295.176 303.342 295.706 303.85 295.797Z" fill="#F29422"/>
<path d="M305.747 276.989L309.896 277.727C309.887 277.035 309.883 276.342 309.873 275.644L306.048 274.96C305.54 274.868 305.063 275.251 304.979 275.811C304.896 276.373 305.238 276.897 305.747 276.989Z" fill="#F29422"/>
<path d="M214.227 260.601C214.601 260.601 214.953 260.353 215.096 259.948L217.794 252.351C217.982 251.822 217.745 251.225 217.266 251.019C216.786 250.811 216.244 251.072 216.056 251.601L213.359 259.197C213.172 259.726 213.408 260.323 213.888 260.531C214 260.578 214.114 260.601 214.227 260.601Z" fill="#F29422"/>
<path d="M210.8 236.635C212.552 229.178 214.754 220.889 216.935 213.748L216.95 213.708C217.623 211.5 218.296 209.405 218.954 207.484L218.988 207.382C219.191 206.774 219.4 206.189 219.602 205.617L219.652 205.323V205.317C219.652 204.975 219.444 204.654 219.113 204.526C218.682 204.368 218.207 204.594 218.053 205.035C215.817 211.316 213.175 220.359 210.909 229.229C210.87 231.686 210.835 234.159 210.8 236.635Z" fill="#F29422"/>
<path d="M237.551 92.6553C237.551 92.6553 231.054 85.2778 233.506 76.6971C235.957 68.1163 242.665 68.2102 242.665 68.2102C242.665 68.2102 246.578 59.0823 253.243 58.782C259.907 58.4806 266.189 46.2865 272.255 49.5973C278.318 52.9104 271.598 60.136 271.598 60.136C271.598 60.136 281.988 48.8461 285.414 52.1569C288.84 55.4689 280.658 64.3522 280.658 64.3522C280.658 64.3522 289.387 58.0285 292.255 60.4374C295.123 62.8464 285.414 73.2344 285.414 73.2344C285.414 73.2344 291.696 84.9022 285.373 90.1339L237.551 92.6553Z" fill="#405F73"/>
<path d="M282.939 95.1245C282.939 95.1245 287.093 89.4186 290.181 94.1368C293.271 98.8561 288.904 112.793 281.341 109.391L282.939 95.1245Z" fill="#FCB2A3"/>
<path d="M282.992 105.083C283.271 105.083 283.528 104.893 283.607 104.602C284.78 100.3 289.105 98.5558 289.149 98.5384C289.479 98.4085 289.645 98.0283 289.519 97.6898C289.394 97.3501 289.025 97.1786 288.697 97.3073C288.494 97.3861 283.726 99.2919 282.377 104.248C282.281 104.598 282.48 104.961 282.819 105.059L282.992 105.083Z" fill="#FCB2A3"/>
<path d="M287.361 102.917C287.479 102.917 287.598 102.882 287.705 102.812C288.002 102.614 288.088 102.208 287.896 101.901C287.865 101.85 287.1 100.647 285.497 99.9088C285.178 99.7604 284.798 99.9087 284.654 100.241C284.509 100.573 284.653 100.962 284.976 101.111C286.214 101.682 286.816 102.605 286.822 102.614C286.944 102.809 287.15 102.917 287.361 102.917Z" fill="#FCB2A3"/>
<path d="M240.129 95.1245C240.129 95.1245 235.974 89.4186 232.886 94.1368C229.796 98.8561 234.163 112.793 241.725 109.391L240.129 95.1245Z" fill="#FCB2A3"/>
<path d="M240.074 105.083C239.795 105.083 239.539 104.893 239.459 104.602C238.287 100.3 233.961 98.5558 233.917 98.5384C233.588 98.4085 233.422 98.0283 233.546 97.6898C233.672 97.3501 234.04 97.1786 234.37 97.3073C234.572 97.3861 239.34 99.2919 240.69 104.248C240.785 104.598 240.587 104.961 240.246 105.059L240.074 105.083Z" fill="#FCB2A3"/>
<path d="M235.706 102.917C235.588 102.917 235.468 102.882 235.361 102.812C235.065 102.614 234.979 102.208 235.17 101.901C235.202 101.85 235.967 100.647 237.568 99.9088C237.889 99.7604 238.268 99.9087 238.412 100.241C238.557 100.573 238.412 100.962 238.091 101.111C236.852 101.682 236.25 102.605 236.244 102.614C236.123 102.809 235.917 102.917 235.706 102.917Z" fill="#FCB2A3"/>
<path d="M251.309 121.212V135.072C251.309 135.072 255.321 142.131 260.745 142.611C266.167 143.099 270.983 136.534 270.983 136.534V122.186L251.309 121.212Z" fill="#FCB2A3"/>
<path d="M251.309 121.212V127.362C254.95 131.524 261.415 132.563 270.983 131.107V122.186L251.309 121.212Z" fill="#FCB2A3"/>
<path d="M237.127 85.6187C237.373 91.0058 237.871 97.7422 238.87 103.123V103.14L238.88 103.191L238.885 103.201C239.131 104.516 239.406 105.751 239.708 106.864C239.889 107.516 240.085 108.2 240.307 108.898C243.495 119.204 250.882 134.122 269.45 127.297C277.269 124.426 281.342 116.106 283.416 107.081C283.536 106.543 283.652 106.011 283.753 105.499C283.823 105.157 283.888 104.826 283.948 104.499L284.038 104.018L284.068 103.842L284.074 103.812C285.299 96.8727 285.485 89.8569 285.395 84.8432C285.299 79.7309 282.586 75.0533 278.268 72.5343C266.572 65.6993 254.222 68.2497 246.091 71.4678C240.446 73.6982 236.835 79.4052 237.127 85.6187Z" fill="#FCB2A3"/>
<path d="M261.946 111.313C275.2 109.471 273.115 116.825 273.115 116.825C271.644 118.206 270.298 119.215 269.394 119.738C266.501 121.398 263.653 122.03 261.59 121.926C259.556 121.838 258.999 122.267 253.856 119.402C252.947 118.9 252.028 118.154 251.129 117.27H251.123V117.265C250.903 115.825 248.658 108.96 261.946 111.313ZM238.864 103.123L238.87 103.14L238.88 103.191L238.886 103.201C239.005 103.651 239.659 106.119 240.307 108.898C243.495 119.204 250.882 134.122 269.45 127.297C277.269 124.426 281.342 116.106 283.416 107.081C283.536 106.543 283.652 106.011 283.753 105.499C283.823 105.157 283.888 104.826 283.948 104.499L284.038 104.018L284.068 103.842L284.074 103.812L281.342 103.242C280.819 105.907 279.664 108.416 278.248 110.647C275.938 104.945 264.216 108.732 264.216 108.732L264.161 108.753C263.448 108.981 262.715 109.099 261.977 109.099C261.218 109.099 260.464 108.975 259.732 108.732C259.732 108.732 248.15 104.779 245.75 110.217C243.349 106.388 241.722 102.917 241.722 102.917L238.87 103.123H238.864Z" fill="#405F73"/>
<path d="M249.938 95.6415C249.938 97.1219 250.678 98.3206 251.59 98.3206C252.503 98.3206 253.243 97.1219 253.243 95.6415C253.243 94.1623 252.503 92.9625 251.59 92.9625C250.678 92.9625 249.938 94.1623 249.938 95.6415Z" fill="#405F73"/>
<path d="M270.602 95.6415C270.602 97.1219 271.342 98.3206 272.256 98.3206C273.168 98.3206 273.908 97.1219 273.908 95.6415C273.908 94.1623 273.168 92.9625 272.256 92.9625C271.342 92.9625 270.602 94.1623 270.602 95.6415Z" fill="#405F73"/>
<path d="M245.704 86.6086C245.704 86.6086 252.535 83.8276 257.794 86.1681L257.268 89.1822C257.268 89.1822 249.55 88.5098 245.66 90.1339C245.311 88.9735 245.26 87.8015 245.704 86.6086Z" fill="#405F73"/>
<path d="M278.183 86.6225C278.183 86.6225 271.302 83.8207 266.004 86.1786L266.534 89.2146C266.534 89.2146 274.311 88.5376 278.228 90.1733C278.58 89.0048 278.632 87.8235 278.183 86.6225Z" fill="#405F73"/>
<path d="M261.311 107.614C260.233 107.614 259.163 107.183 258.998 107.112C258.671 106.976 258.515 106.592 258.648 106.254C258.78 105.918 259.155 105.756 259.48 105.893C260.058 106.135 261.443 106.514 262.044 106.143C262.16 106.071 262.319 105.93 262.358 105.53C262.59 103.231 261.978 95.5233 261.972 95.4456C261.943 95.084 262.205 94.7651 262.557 94.7362C262.909 94.7049 263.218 94.9761 263.246 95.3378C263.271 95.6601 263.874 103.245 263.63 105.666C263.538 106.577 263.075 107.043 262.701 107.273C262.291 107.526 261.8 107.614 261.311 107.614Z" fill="#FCB2A3"/>
<path d="M269.46 112.63C268.975 115.145 267.362 119.772 261.929 119.772C256.484 119.772 254.956 115.544 254.432 112.63H269.46Z" fill="white"/>
<path d="M237.124 85.6163C237.374 91.0034 237.873 97.7386 238.87 103.124L241.725 102.917C241.725 102.917 241.033 98.3681 240.715 95.405C240.394 92.442 239.852 86.9042 242.306 86.2122C244.753 85.5282 243.317 79.2103 246.723 76.471C250.13 73.7248 257.749 72.9724 262.773 76.1592C267.796 79.339 273.457 75.9181 275.771 76.471C278.09 77.017 281.234 80.3093 280.384 83.3836C279.528 86.4521 282.084 88.3232 282.704 91.503C283.324 94.684 281.343 103.243 281.343 103.243L284.073 103.81C285.3 96.8691 285.485 89.8569 285.395 84.8466C285.3 79.7308 282.589 75.0544 278.269 72.5342C266.567 65.6993 254.22 68.2473 246.091 71.4665C240.448 73.6992 236.836 79.4074 237.124 85.6163Z" fill="#405F73"/>
<path d="M354.729 233.928C352.991 250.253 342.645 286.723 335.482 293.867C326.158 303.168 295.469 322.748 279.483 332.788C276.598 334.599 290.144 346.658 290.144 346.658C290.144 346.658 332.588 327.96 348.798 313.216C353.383 309.045 362.694 295.89 373.205 270.833C376.392 263.236 384.114 247.913 383.713 237.924C383.252 226.426 365.521 228.317 354.729 233.928Z" fill="#33535F"/>
<path d="M321.609 327.702C321.609 327.702 310.065 332.219 305.975 337.187C301.882 342.156 296.476 346.371 297.791 348.328C299.106 350.284 305.097 344.565 305.097 344.565C305.097 344.565 306.74 350.854 312.549 351.532C318.359 352.209 329.354 340.499 329.354 340.499L321.609 327.702Z" fill="#FCB2A3"/>
<path d="M435.559 279.509C435.562 280.542 435.554 281.764 435.536 283.149C435.518 284.528 435.49 286.067 435.449 287.75C435.417 288.903 435.381 290.123 435.341 291.402C435.302 292.48 435.262 293.597 435.218 294.756C435.169 295.939 435.116 297.158 435.057 298.417C434.254 315.514 432.311 339.12 428.037 358.045H338.227C341.222 344.29 345.805 322.597 349.439 294.449C349.592 293.266 349.744 292.072 349.894 290.864C350.042 289.656 350.187 288.436 350.333 287.207C350.413 286.555 350.489 285.894 350.565 285.236C350.626 284.691 350.688 284.149 350.746 283.613C350.913 282.095 351.065 280.602 351.2 279.138C351.312 277.916 351.418 276.714 351.518 275.528C353.058 256.604 352.514 242.422 354.727 233.928C357.305 224.04 387.36 212.705 387.36 212.705L406.188 213.719C406.188 213.719 424.142 219.759 433.738 228.439C443.341 237.123 435.311 263.032 435.545 277.744C435.554 278.251 435.558 278.84 435.559 279.509Z" fill="#33535F"/>
<path d="M435.536 283.149C427.371 284.169 418.852 284.573 410.493 284.573C383.118 284.573 357.42 280.261 351.199 279.138C351.312 277.916 351.418 276.714 351.518 275.528C358.748 276.847 400.589 283.976 435.558 279.509C435.562 280.542 435.554 281.763 435.536 283.149Z" fill="#BBD1DF"/>
<path d="M435.448 287.75C435.417 288.903 435.381 290.123 435.34 291.401C427.233 292.405 418.784 292.798 410.493 292.798C381.572 292.798 354.524 287.987 350.333 287.207C350.413 286.555 350.488 285.894 350.565 285.235C350.626 284.691 350.687 284.149 350.746 283.612C354.908 284.395 398.903 292.393 435.448 287.75Z" fill="#BBD1DF"/>
<path d="M435.218 294.756C435.169 295.939 435.116 297.158 435.057 298.417C426.623 299.522 417.791 299.953 409.132 299.953C381.131 299.953 354.891 295.446 349.439 294.449C349.592 293.265 349.744 292.071 349.894 290.863C356.375 292.053 399.596 299.559 435.218 294.756Z" fill="#BBD1DF"/>
<path d="M392.791 231.315C402.154 231.315 410.792 221.063 411.165 220.612C411.403 220.327 411.37 219.898 411.093 219.653C410.817 219.407 410.4 219.441 410.162 219.726C410.071 219.835 401.026 230.573 391.984 229.925C391.623 229.899 391.305 230.183 391.28 230.557C391.255 230.931 391.53 231.257 391.893 231.284C392.192 231.306 392.493 231.315 392.791 231.315Z" fill="#F29422"/>
<path d="M400.908 346.622C401.239 346.622 401.523 346.366 401.563 346.02C401.605 345.646 401.344 345.309 400.981 345.266C376.797 342.398 366.779 299.268 366.68 298.832C366.597 298.466 366.243 298.239 365.887 298.323C365.532 298.409 365.311 298.776 365.393 299.141C365.803 300.957 375.73 343.642 400.831 346.618L400.908 346.622Z" fill="#F29422"/>
<path d="M391.278 333.571C391.499 333.571 391.716 333.457 391.84 333.248C392.032 332.928 391.936 332.508 391.625 332.311C378.761 324.141 376.85 312.096 376.83 311.975C376.776 311.605 376.442 311.345 376.079 311.404C375.719 311.461 375.47 311.808 375.525 312.177C375.599 312.697 377.521 324.952 390.931 333.469C391.039 333.539 391.159 333.571 391.278 333.571Z" fill="#F29422"/>
<path d="M372.293 167.87C372.293 182.946 384.155 195.167 398.788 195.167C413.419 195.167 425.282 182.946 425.282 167.87C425.282 152.794 413.419 140.573 398.788 140.573C384.155 140.573 372.293 152.794 372.293 167.87Z" fill="#405F73"/>
<path d="M372.727 162.975C372.727 162.975 365.224 160.841 366.213 153.34C367.056 146.953 374.334 151.093 373.695 146.104C373.055 141.112 371.633 136.576 377.898 135.327C383.38 134.236 383.472 138.107 390.67 132.492C399.173 125.86 405.703 141.219 413.293 141.68C424.486 142.36 425.899 148.881 427 154.099C428.101 159.317 423.792 162.975 423.792 162.975H372.727Z" fill="#405F73"/>
<path d="M376.744 175.508C376.744 175.508 372.549 169.743 369.427 174.51C366.307 179.278 370.719 193.357 378.359 189.92L376.744 175.508Z" fill="#FCB2A3"/>
<path d="M376.691 185.569C376.408 185.569 376.149 185.377 376.068 185.083C374.885 180.736 370.514 178.974 370.469 178.957C370.137 178.826 369.97 178.442 370.096 178.099C370.222 177.756 370.594 177.584 370.927 177.713C371.132 177.792 375.949 179.718 377.313 184.724C377.408 185.079 377.208 185.445 376.864 185.545L376.691 185.569Z" fill="#FCB2A3"/>
<path d="M372.278 183.38C372.158 183.38 372.037 183.344 371.93 183.274C371.628 183.074 371.543 182.664 371.736 182.354C371.768 182.303 372.542 181.087 374.159 180.342C374.483 180.191 374.867 180.342 375.012 180.677C375.158 181.013 375.012 181.406 374.687 181.557C373.435 182.133 372.828 183.065 372.822 183.074C372.697 183.273 372.49 183.38 372.278 183.38Z" fill="#FCB2A3"/>
<path d="M407.183 201.863V215.865C407.183 215.865 401.595 222.036 396.114 222.521C390.639 223.014 387.308 216.312 387.308 216.312V202.848L407.183 201.863Z" fill="#FCB2A3"/>
<path d="M407.183 201.864V208.076C403.505 212.281 396.974 213.332 387.308 211.861V202.848L407.183 201.864Z" fill="#FCB2A3"/>
<path d="M421.513 165.902C421.26 171.344 420.756 178.149 419.749 183.589C419.497 184.946 419.214 186.224 418.898 187.368C416.037 197.687 408.883 215.379 388.855 208.01C380.009 204.757 375.91 194.605 374.083 184.282C372.843 177.27 372.656 170.186 372.746 165.124C372.843 159.955 375.581 155.233 379.946 152.686C391.767 145.781 404.242 148.355 412.454 151.608C418.155 153.862 421.803 159.63 421.513 165.902Z" fill="#FCB2A3"/>
<path d="M398.654 175.793C398.654 174.853 399.395 174.094 400.303 174.094H410.214C411.127 174.094 411.864 174.853 411.864 175.793V177.099C411.864 178.986 411.151 180.788 409.904 182.038C408.659 183.283 407.252 183.929 405.721 183.966H405.483C403.675 183.966 401.971 183.243 400.68 181.921C399.375 180.584 398.654 178.801 398.654 176.897V175.793ZM397.485 175.793V176.897C397.485 179.123 398.327 181.21 399.858 182.777C401.367 184.322 403.362 185.17 405.483 185.17H405.744C407.584 185.13 409.257 184.366 410.721 182.902C412.191 181.423 413.033 179.31 413.033 177.099V175.793C413.033 175.43 412.967 175.085 412.846 174.765C412.706 174.375 412.487 174.029 412.207 173.74C411.696 173.214 410.994 172.889 410.214 172.889H400.303C399.18 172.889 398.213 173.564 397.762 174.545C397.593 174.901 397.495 175.298 397.489 175.716L397.485 175.793Z" fill="#405F73"/>
<path d="M378.806 175.793C378.806 174.853 379.546 174.094 380.454 174.094H390.371C391.279 174.094 392.019 174.853 392.019 175.793V177.099C392.019 178.986 391.302 180.788 390.059 182.038C388.816 183.283 387.409 183.929 385.877 183.966H385.635C383.826 183.966 382.122 183.243 380.837 181.921C379.527 180.584 378.806 178.801 378.806 176.897V175.793ZM377.636 175.793V176.897C377.636 179.123 378.482 181.21 380.01 182.777C381.519 184.322 383.515 185.17 385.635 185.17H385.9C387.737 185.13 389.412 184.366 390.874 182.902C392.343 181.423 393.188 179.31 393.188 177.099V175.793L393.185 175.736C393.18 175.342 393.095 174.966 392.946 174.624C392.511 173.6 391.52 172.889 390.371 172.889H380.454C379.585 172.889 378.806 173.299 378.287 173.937C378.037 174.251 377.846 174.615 377.746 175.014C377.671 175.263 377.636 175.523 377.636 175.793Z" fill="#405F73"/>
<path d="M420.098 172.401C416.731 172.252 414.326 173.252 413.376 173.74C413.11 173.873 412.401 174.349 412.371 174.367L412.928 175.39C412.936 175.386 413.711 174.909 414.015 174.764C414.948 174.315 417.018 173.417 420.098 173.603V172.401Z" fill="#405F73"/>
<path d="M398.27 175.838L398.654 174.699C398.585 174.674 396.943 174.094 395.14 174.094C393.221 174.094 391.984 174.7 391.933 174.727L392.443 175.809C392.452 175.807 393.506 175.298 395.14 175.298C396.74 175.298 398.254 175.833 398.27 175.838Z" fill="#405F73"/>
<path d="M373.541 172.692V173.9C375.964 174.106 378.2 175.22 378.232 175.234L378.746 174.154C378.614 174.085 376.212 172.893 373.541 172.692Z" fill="#405F73"/>
<path d="M386.812 177.336C386.812 178.83 386.065 180.042 385.144 180.042C384.221 180.042 383.473 178.83 383.473 177.336C383.473 175.841 384.221 174.629 385.144 174.629C386.065 174.629 386.812 175.841 386.812 177.336Z" fill="#405F73"/>
<path d="M406.369 177.336C406.369 178.83 405.622 180.042 404.699 180.042C403.776 180.042 403.029 178.83 403.029 177.336C403.029 175.841 403.776 174.629 404.699 174.629C405.622 174.629 406.369 175.841 406.369 177.336Z" fill="#405F73"/>
<path d="M379.711 169.024C379.711 169.024 386.662 166.194 392.015 168.577L391.568 171.136C391.568 171.136 385.77 169.803 380.096 171.985C379.74 170.804 379.259 170.238 379.711 169.024Z" fill="#405F73"/>
<path d="M411.522 169.024C411.522 169.024 404.569 166.194 399.218 168.577L399.664 171.136C399.664 171.136 405.46 169.803 411.137 171.985C411.492 170.804 411.974 170.238 411.522 169.024Z" fill="#405F73"/>
<path d="M395.944 188.677C397.035 188.677 398.115 188.241 398.282 188.172C398.612 188.031 398.77 187.644 398.636 187.304C398.502 186.965 398.124 186.8 397.794 186.939C397.21 187.183 395.812 187.565 395.204 187.191C395.088 187.118 394.927 186.975 394.887 186.572C394.654 184.249 395.271 176.463 395.277 176.384C395.306 176.018 395.042 175.697 394.686 175.667C394.33 175.635 394.02 175.909 393.99 176.275C393.965 176.6 393.358 184.264 393.602 186.709C393.695 187.629 394.163 188.1 394.541 188.333C394.955 188.588 395.451 188.677 395.944 188.677Z" fill="#FCB2A3"/>
<path d="M387.942 192.055C388.47 194.791 390.223 199.822 396.131 199.822C402.054 199.822 403.716 195.224 404.287 192.055H387.942Z" fill="white"/>
<path d="M396.052 203.295C397.724 203.295 399.141 202.423 399.2 202.386C399.505 202.196 399.602 201.787 399.417 201.473C399.233 201.159 398.837 201.058 398.531 201.248C398.521 201.255 397.354 201.966 396.052 201.966C394.858 201.966 393.714 201.258 393.702 201.251C393.4 201.059 393.001 201.155 392.815 201.467C392.627 201.78 392.72 202.189 393.025 202.383C393.084 202.421 394.475 203.295 396.052 203.295Z" fill="#FCB2A3"/>
<path d="M376.081 179.946C375.594 177.203 375.112 173.662 375.461 171.847C376.09 168.635 378.673 166.746 377.812 163.65C376.951 160.541 380.129 157.214 382.471 156.661C384.807 156.102 390.274 157.302 395.656 154.669C400.791 152.154 409.721 153.953 411.177 157.349C412.937 161.461 410.541 161.851 415.347 166.297C417.259 168.069 414.989 172.671 414.664 175.666C414.519 177.043 414.497 177.715 414.551 179.194L414.569 179.946H420.321C420.955 175.303 421.317 170.184 421.515 165.901C421.806 159.627 418.153 153.865 412.454 151.608C404.24 148.355 391.771 145.778 379.943 152.686C375.582 155.235 372.841 159.954 372.749 165.123C372.675 169.138 372.779 174.428 373.444 179.946H376.081Z" fill="#405F73"/>
<path d="M417.771 182.505C417.753 180.956 417.86 179.405 418.123 177.881C418.483 175.793 419.07 173.9 421.143 173.029C422.81 172.33 424.59 172.317 425.858 174.252C428.979 179.02 425.504 193.854 417.864 190.418L417.771 182.505Z" fill="#FCB2A3"/>
<path d="M419.339 186.098C419.617 186.041 419.834 185.8 419.856 185.495C420.191 180.993 424.144 178.384 424.183 178.358C424.485 178.163 424.577 177.752 424.388 177.442C424.199 177.131 423.799 177.036 423.499 177.231C423.313 177.35 418.955 180.21 418.569 185.394C418.541 185.76 418.808 186.079 419.164 186.107L419.339 186.098Z" fill="#FCB2A3"/>
<path d="M423.252 183.059C423.37 183.036 423.481 182.978 423.573 182.885C423.83 182.629 423.837 182.208 423.589 181.944C423.548 181.901 422.558 180.865 420.83 180.46C420.484 180.378 420.136 180.603 420.057 180.961C419.978 181.318 420.196 181.675 420.543 181.756C421.88 182.07 422.654 182.862 422.661 182.87C422.82 183.04 423.043 183.103 423.252 183.059Z" fill="#FCB2A3"/>
<path d="M429.922 225.402C420.486 240.137 384.372 291.082 376.223 296.999C365.616 304.704 336.7 315.659 320.098 327.081C314.459 330.961 327.784 341.942 327.784 341.942C327.784 341.942 368.253 330.222 386.478 318.235C391.634 314.844 413.079 292.713 426.749 273.083C431.434 266.359 439.053 257.018 440.154 247.085C441.423 235.652 437.937 229.534 429.922 225.402Z" fill="#33535F"/>
<path d="M358.343 358.045H245.845C244.407 358.045 243.242 356.844 243.242 355.362V346.126C243.242 344.646 244.407 343.445 245.845 343.445H358.343C359.783 343.445 360.947 344.646 360.947 346.126V355.362C360.947 356.844 359.783 358.045 358.343 358.045Z" fill="#405F73"/>
<path d="M243.266 358.045L221.141 272.679C219.898 267.884 223.406 263.178 228.221 263.178H276.907C280.19 263.178 283.075 265.43 283.963 268.688L308.325 358.045H243.266Z" fill="#405F73"/>
<path d="M283.968 268.689L308.129 357.309H313.69L289.53 268.689C288.636 265.43 285.758 263.176 282.472 263.176H276.908C280.194 263.176 283.073 265.43 283.968 268.689Z" fill="#405F73"/>
<path d="M271.451 314.433C272.716 320.064 269.311 324.628 263.845 324.628C258.38 324.628 252.924 320.064 251.66 314.433C250.396 308.803 253.8 304.239 259.265 304.239C264.73 304.239 270.186 308.803 271.451 314.433Z" fill="#BBD1DF"/>
<path d="M422.31 30.7189C419.499 30.7189 417.211 33.0768 417.211 35.9726C417.211 38.8696 419.499 41.2263 422.31 41.2263C425.121 41.2263 427.409 38.8696 427.409 35.9726C427.409 33.0768 425.121 30.7189 422.31 30.7189ZM422.31 43.6283C418.213 43.6283 414.881 40.1934 414.881 35.9726C414.881 31.7518 418.213 28.3181 422.31 28.3181C426.407 28.3181 429.74 31.7518 429.74 35.9726C429.74 40.1934 426.407 43.6283 422.31 43.6283Z" fill="#F29422"/>
<path d="M449.06 57.5752C446.248 57.5752 443.959 59.9319 443.959 62.8289C443.959 65.7247 446.248 68.0814 449.06 68.0814C451.87 68.0814 454.158 65.7247 454.158 62.8289C454.158 59.9319 451.87 57.5752 449.06 57.5752ZM449.06 70.4834C444.962 70.4834 441.629 67.0497 441.629 62.8289C441.629 58.6069 444.962 55.1732 449.06 55.1732C453.155 55.1732 456.488 58.6069 456.488 62.8289C456.488 67.0497 453.155 70.4834 449.06 70.4834Z" fill="#F29422"/>
<path d="M458.238 95.3586C457.593 95.3586 457.072 94.8207 457.072 94.1576V88.8622C457.072 88.1991 457.593 87.6612 458.238 87.6612C458.882 87.6612 459.404 88.1991 459.404 88.8622V94.1576C459.404 94.8207 458.882 95.3586 458.238 95.3586Z" fill="#F29422"/>
<path d="M458.238 104.625C457.593 104.625 457.072 104.087 457.072 103.425V98.1292C457.072 97.465 457.593 96.9283 458.238 96.9283C458.882 96.9283 459.404 97.465 459.404 98.1292V103.425C459.404 104.087 458.882 104.625 458.238 104.625Z" fill="#F29422"/>
<path d="M465.453 97.3433H460.836C460.192 97.3433 459.67 96.8065 459.67 96.1435C459.67 95.4804 460.192 94.9425 460.836 94.9425H465.453C466.096 94.9425 466.618 95.4804 466.618 96.1435C466.618 96.8065 466.096 97.3433 465.453 97.3433Z" fill="#F29422"/>
<path d="M455.641 97.3433H451.024C450.38 97.3433 449.858 96.8065 449.858 96.1435C449.858 95.4804 450.38 94.9425 451.024 94.9425H455.641C456.284 94.9425 456.806 95.4804 456.806 96.1435C456.806 96.8065 456.284 97.3433 455.641 97.3433Z" fill="#F29422"/>
<path d="M417.211 65.6865C416.568 65.6865 416.046 65.1498 416.046 64.4855V59.1901C416.046 58.527 416.568 57.9891 417.211 57.9891C417.855 57.9891 418.377 58.527 418.377 59.1901V64.4855C418.377 65.1498 417.855 65.6865 417.211 65.6865Z" fill="#405F73"/>
<path d="M417.211 74.9536C416.568 74.9536 416.046 74.4157 416.046 73.7526V68.4572C416.046 67.7941 416.568 67.2562 417.211 67.2562C417.855 67.2562 418.377 67.7941 418.377 68.4572V73.7526C418.377 74.4157 417.855 74.9536 417.211 74.9536Z" fill="#405F73"/>
<path d="M424.426 67.6722H419.808C419.165 67.6722 418.643 67.1344 418.643 66.4713C418.643 65.8082 419.165 65.2703 419.808 65.2703H424.426C425.068 65.2703 425.59 65.8082 425.59 66.4713C425.59 67.1344 425.068 67.6722 424.426 67.6722Z" fill="#405F73"/>
<path d="M414.614 67.6722H409.999C409.354 67.6722 408.833 67.1344 408.833 66.4713C408.833 65.8082 409.354 65.2703 409.999 65.2703H414.614C415.259 65.2703 415.78 65.8082 415.78 66.4713C415.78 67.1344 415.259 67.6722 414.614 67.6722Z" fill="#405F73"/>
<path d="M79.8294 8.48225C79.8294 11.3792 82.1171 13.736 84.9282 13.736C87.7398 13.736 90.0273 11.3792 90.0273 8.48225C90.0273 5.58529 87.7398 3.22856 84.9282 3.22856C82.1171 3.22856 79.8294 5.58529 79.8294 8.48225ZM77.499 8.48225C77.499 4.26143 80.8315 0.827759 84.9282 0.827759C89.0259 0.827759 92.3587 4.26143 92.3587 8.48225C92.3587 12.7031 89.0259 16.1379 84.9282 16.1379C80.8315 16.1379 77.499 12.7031 77.499 8.48225Z" fill="#F29422"/>
<path d="M49.9914 37.6605C49.9914 40.5563 52.2787 42.9131 55.0904 42.9131C57.902 42.9131 60.1888 40.5563 60.1888 37.6605C60.1888 34.7636 57.902 32.4068 55.0904 32.4068C52.2787 32.4068 49.9914 34.7636 49.9914 37.6605ZM47.6602 37.6605C47.6602 33.4397 50.9935 30.0049 55.0904 30.0049C59.1867 30.0049 62.5201 33.4397 62.5201 37.6605C62.5201 41.8814 59.1867 45.3151 55.0904 45.3151C50.9935 45.3151 47.6602 41.8814 47.6602 37.6605Z" fill="#F29422"/>
<path d="M32.2139 48.4021C32.8574 48.4021 33.3796 47.8642 33.3796 47.2011V41.9057C33.3796 41.2426 32.8574 40.7059 32.2139 40.7059C31.5704 40.7059 31.0488 41.2426 31.0488 41.9057V47.2011C31.0488 47.8642 31.5704 48.4021 32.2139 48.4021Z" fill="#F29422"/>
<path d="M32.2139 57.6691C32.8574 57.6691 33.3796 57.1312 33.3796 56.4681V51.1726C33.3796 50.5095 32.8574 49.9717 32.2139 49.9717C31.5704 49.9717 31.0488 50.5095 31.0488 51.1726V56.4681C31.0488 57.1312 31.5704 57.6691 32.2139 57.6691Z" fill="#F29422"/>
<path d="M25.0005 50.3879H29.6173C30.2608 50.3879 30.783 49.85 30.783 49.1869C30.783 48.5239 30.2608 47.9859 29.6173 47.9859H25.0005C24.3571 47.9859 23.835 48.5239 23.835 49.1869C23.835 49.85 24.3571 50.3879 25.0005 50.3879Z" fill="#F29422"/>
<path d="M34.8106 50.3879H39.4278C40.0713 50.3879 40.5931 49.85 40.5931 49.1869C40.5931 48.5239 40.0713 47.9859 39.4278 47.9859H34.8106C34.1671 47.9859 33.6455 48.5239 33.6455 49.1869C33.6455 49.85 34.1671 50.3879 34.8106 50.3879Z" fill="#F29422"/>
<path d="M59.0684 7.69751C59.7119 7.69751 60.2336 7.16076 60.2336 6.49651V1.20107C60.2336 0.537981 59.7119 7.62939e-05 59.0684 7.62939e-05C58.4249 7.62939e-05 57.9033 0.537981 57.9033 1.20107V6.49651C57.9033 7.16076 58.4249 7.69751 59.0684 7.69751Z" fill="#405F73"/>
<path d="M59.0684 16.9644C59.7119 16.9644 60.2336 16.4265 60.2336 15.7634V10.4679C60.2336 9.80483 59.7119 9.26692 59.0684 9.26692C58.4249 9.26692 57.9033 9.80483 57.9033 10.4679V15.7634C57.9033 16.4265 58.4249 16.9644 59.0684 16.9644Z" fill="#405F73"/>
<path d="M51.8551 9.68323H56.4723C57.1154 9.68323 57.6375 9.14532 57.6375 8.48223C57.6375 7.81914 57.1154 7.28242 56.4723 7.28242H51.8551C51.2117 7.28242 50.6895 7.81914 50.6895 8.48223C50.6895 9.14532 51.2117 9.68323 51.8551 9.68323Z" fill="#405F73"/>
<path d="M61.6666 9.68323H66.2833C66.9273 9.68323 67.4495 9.14532 67.4495 8.48223C67.4495 7.81914 66.9273 7.28242 66.2833 7.28242H61.6666C61.0226 7.28242 60.501 7.81914 60.501 8.48223C60.501 9.14532 61.0226 9.68323 61.6666 9.68323Z" fill="#405F73"/>
<path d="M364.121 16.6086V39.9188C364.121 43 361.694 45.4994 358.704 45.4994H317.625L305.223 50.083C303.95 50.5549 302.731 49.2646 303.218 47.9674L307.91 35.4858V16.6086C307.91 13.5285 310.336 11.028 313.33 11.028H358.704C361.694 11.028 364.121 13.5285 364.121 16.6086Z" fill="#F29422"/>
<path d="M355.459 23.2036H317.774C316.948 23.2036 316.279 22.515 316.279 21.6641C316.279 20.8132 316.948 20.1235 317.774 20.1235H355.459C356.285 20.1235 356.954 20.8132 356.954 21.6641C356.954 22.515 356.285 23.2036 355.459 23.2036Z" fill="#A585C9"/>
<path d="M355.459 29.4055H317.774C316.948 29.4055 316.279 28.7169 316.279 27.866C316.279 27.0163 316.948 26.3266 317.774 26.3266H355.459C356.285 26.3266 356.954 27.0163 356.954 27.866C356.954 28.7169 356.285 29.4055 355.459 29.4055Z" fill="#A585C9"/>
<path d="M355.459 35.6086H317.774C316.948 35.6086 316.279 34.9189 316.279 34.0692C316.279 33.2183 316.948 32.5285 317.774 32.5285H355.459C356.285 32.5285 356.954 33.2183 356.954 34.0692C356.954 34.9189 356.285 35.6086 355.459 35.6086Z" fill="#A585C9"/>
<path d="M485.293 366.762V367.596C485.293 372.399 481.51 376.297 476.844 376.297H38.6597C33.9938 376.297 30.2139 372.399 30.2139 367.596V366.762C30.2139 361.957 33.9938 358.059 38.6597 358.059H476.844C481.51 358.059 485.293 361.957 485.293 366.762Z" fill="#405F73"/>
<path d="M485.293 366.762V367.18H30.2139V366.762C30.2139 361.957 33.9938 358.06 38.6597 358.06H476.844C481.51 358.06 485.293 361.957 485.293 366.762Z" fill="#F29422"/>
</svg>
