<svg width="40" height="39" viewBox="0 0 40 39" fill="none" xmlns="http://www.w3.org/2000/svg">
<path d="M20 0C8.95599 0 0 8.60085 0 19.2069C0 29.813 8.95599 38.4138 20 38.4138C31.044 38.4138 40 29.813 40 19.2069C40 8.60085 31.044 0 20 0ZM29.1318 14.9755C29.1406 15.1645 29.1449 15.3544 29.1449 15.5452C29.1449 21.3707 24.5276 28.0882 16.0837 28.0885C13.4912 28.0885 11.0788 27.3588 9.04724 26.1082C9.40643 26.149 9.77203 26.1692 10.1422 26.1692C12.2931 26.1692 14.2725 25.4646 15.8438 24.2821C13.8342 24.2463 12.1399 22.9717 11.5552 21.22C11.835 21.2716 12.1228 21.2998 12.4179 21.2998C12.8369 21.2998 13.2428 21.2455 13.6285 21.1444C11.528 20.7406 9.94568 18.9578 9.94568 16.823C9.94568 16.8031 9.94568 16.7852 9.94629 16.7668C10.5649 17.0971 11.2723 17.2958 12.0255 17.318C10.7928 16.5282 9.9826 15.178 9.9826 13.6485C9.9826 12.8408 10.21 12.084 10.6042 11.4325C12.868 14.1001 16.2512 15.8544 20.0665 16.0388C19.9878 15.7158 19.9472 15.3794 19.9472 15.0335C19.9472 12.5998 22.0032 10.6254 24.5383 10.6254C25.8588 10.6254 27.0514 11.1614 27.8891 12.0184C28.9349 11.8203 29.917 11.4533 30.8041 10.9484C30.4608 11.9774 29.7333 12.8408 28.7854 13.3867C29.7141 13.2801 30.5991 13.0436 31.4215 12.6925C30.8072 13.5767 30.0281 14.3533 29.1318 14.9755Z" fill="#405F73"/>
</svg>
