<svg width="40" height="39" viewBox="0 0 40 39" fill="none" xmlns="http://www.w3.org/2000/svg">
<path d="M17.5078 22.8052L24.0136 19.2068L17.5078 15.6084V22.8052Z" fill="#405F73"/>
<path d="M20 0C8.95599 0 0 8.60085 0 19.2069C0 29.813 8.95599 38.4138 20 38.4138C31.044 38.4138 40 29.813 40 19.2069C40 8.60085 31.044 0 20 0ZM32.4969 19.2265C32.4969 19.2265 32.4969 23.1218 31.9824 25.0001C31.694 26.0282 30.8499 26.8389 29.7794 27.1155C27.8235 27.6099 20 27.6099 20 27.6099C20 27.6099 12.197 27.6099 10.2206 27.0959C9.15009 26.8192 8.30597 26.0083 8.01758 24.9802C7.50275 23.1218 7.50275 19.2069 7.50275 19.2069C7.50275 19.2069 7.50275 15.312 8.01758 13.4336C8.30566 12.4055 9.17053 11.575 10.2206 11.2983C12.1765 10.8039 20 10.8039 20 10.8039C20 10.8039 27.8235 10.8039 29.7794 11.3179C30.8499 11.5946 31.694 12.4055 31.9824 13.4336C32.5177 15.312 32.4969 19.2265 32.4969 19.2265Z" fill="#405F73"/>
</svg>
