<svg width="46" height="29" viewBox="0 0 46 29" fill="none" xmlns="http://www.w3.org/2000/svg">
<path d="M3.65424 28.3824H42.2848C44.303 28.3824 45.939 27.0635 45.939 25.4365V3.55216C45.939 1.92515 44.303 0.606201 42.2848 0.606201H3.65424C1.63606 0.606201 0 1.92515 0 3.55216V25.4365C0 27.0635 1.63606 28.3824 3.65424 28.3824Z" fill="#E0E0E0"/>
<path d="M25.0576 28.3824H42.2848C44.303 28.3824 45.939 27.0635 45.939 25.4365V3.55216C45.939 1.92515 44.303 0.606201 42.2848 0.606201H3.65424C1.63606 0.606201 0 1.92515 0 3.55216L25.0576 28.3824Z" fill="#D9D9D9"/>
<path d="M4.95312 28.3823H42.2838C44.302 28.3823 45.9381 27.0634 45.9381 25.4364V3.9729L4.95312 28.3823Z" fill="#EEEEEE"/>
<path d="M24.7901 28.3823H42.2835C44.3017 28.3823 45.9377 27.0634 45.9377 25.4364V3.9729L17.5088 20.9046L24.7901 28.3823Z" fill="#E0E0E0"/>
<path d="M42.2848 2.28953H3.65424C1.63606 2.28953 0 1.92507 0 3.55208V25.4364C0 27.0634 1.63606 28.3823 3.65424 28.3823H5.22034V4.39379H40.7187V28.3823H42.2848C44.303 28.3823 45.939 27.0634 45.939 25.4364V3.55208C45.939 1.92507 44.303 2.28953 42.2848 2.28953Z" fill="#F29422"/>
<path d="M42.2848 0.606201H22.9695H3.65424C1.63606 0.606201 0 1.89906 0 3.55217C0 4.56726 1.5849 5.45273 1.5849 5.45273L22.9695 17.6558L44.3541 5.45357C44.3541 5.45357 45.939 4.56726 45.939 3.55301C45.939 1.89906 44.303 0.606201 42.2848 0.606201Z" fill="#F5F5F5"/>
<path d="M43.0637 0.675293L22.9695 11.9693L2.87537 0.675293C1.232 0.958947 0 2.11881 0 3.55224C0 4.56733 1.5849 5.4528 1.5849 5.4528L22.9695 17.6558L44.3541 5.45364C44.3541 5.45364 45.939 4.56733 45.939 3.55308C45.939 2.11882 44.707 0.958947 43.0637 0.675293Z" fill="#F29422"/>
</svg>
