<svg width="46" height="32" viewBox="0 0 46 32" fill="none" xmlns="http://www.w3.org/2000/svg">
<path d="M4.69952 0.584717C2.85952 3.96092 3.6026 6.77918 4.25721 8.32354C1.61575 10.5456 0 13.6069 0 17.6845C0 27.7769 8.12077 31.1386 23 31.1386C37.8792 31.1386 46 27.7769 46 17.6845C46.0018 13.7458 44.2922 10.6741 41.5251 8.41034C41.9214 7.89926 42.465 6.90172 42.465 5.01155C42.465 2.16866 41.2486 0.584717 41.2486 0.584717C39.3573 0.584717 34.9127 1.18336 31.238 4.05403C28.6284 3.54434 25.8466 3.36234 23.0035 3.36234C20.2187 3.36234 17.4914 3.48219 14.9313 3.92383C14.7668 3.80439 10.1894 0.584717 4.69952 0.584717ZM14.1608 13.7784C16.4661 13.7979 20.27 14.4714 23.0035 14.4728C25.7369 14.4714 29.5374 13.7979 31.8427 13.7784C36.3047 13.7784 38.9196 16.5597 38.9196 19.9901C38.9196 25.6176 34.7741 28.3596 23.0069 28.3609H23.0035H22.9965C11.2294 28.3596 7.08383 25.6176 7.08383 19.9901C7.08383 16.5597 9.69876 13.7784 14.1608 13.7784ZM15.035 18.6393C14.3312 18.6393 13.6561 18.9319 13.1585 19.4528C12.6608 19.9737 12.3812 20.6802 12.3812 21.4169C12.3812 22.1536 12.6608 22.8601 13.1585 23.381C13.6561 23.9019 14.3312 24.1945 15.035 24.1945C15.7388 24.1945 16.4139 23.9019 16.9116 23.381C17.4093 22.8601 17.6889 22.1536 17.6889 21.4169C17.6889 20.6802 17.4093 19.9737 16.9116 19.4528C16.4139 18.9319 15.7388 18.6393 15.035 18.6393ZM30.9581 18.6393C30.2542 18.6393 29.5792 18.9319 29.0815 19.4528C28.5838 19.9737 28.3042 20.6802 28.3042 21.4169C28.3042 22.1536 28.5838 22.8601 29.0815 23.381C29.5792 23.9019 30.2542 24.1945 30.9581 24.1945C31.6619 24.1945 32.3369 23.9019 32.8346 23.381C33.3323 22.8601 33.6119 22.1536 33.6119 21.4169C33.6119 20.6802 33.3323 19.9737 32.8346 19.4528C32.3369 18.9319 31.6619 18.6393 30.9581 18.6393Z" fill="#F29422"/>
</svg>
