<svg width="46" height="39" viewBox="0 0 46 39" fill="none" xmlns="http://www.w3.org/2000/svg">
<path d="M43.4444 26.6766C40.25 26.6766 37.1833 26.2579 34.3211 25.4833C33.4267 25.253 32.43 25.4205 31.7144 25.9858L26.0922 30.5915C18.86 27.5768 12.9311 22.7408 9.25111 16.8162L14.8733 12.1896C15.5889 11.6243 15.7933 10.8079 15.5122 10.0751C14.5667 7.7304 14.0556 5.2182 14.0556 2.60132C14.0556 1.44989 12.9056 0.507812 11.5 0.507812H2.55556C1.15 0.507812 0 1.44989 0 2.60132C0 22.2593 19.4478 38.1909 43.4444 38.1909C44.85 38.1909 46 37.2488 46 36.0974V28.7701C46 27.6187 44.85 26.6766 43.4444 26.6766ZM23 0.507812V21.4429L30.6667 15.1623H46V0.507812H23Z" fill="#F29422"/>
</svg>
