<svg width="536" height="358" viewBox="0 0 536 358" fill="none" xmlns="http://www.w3.org/2000/svg">
<path d="M525.907 172.09C481.163 260.379 516.178 384.624 413.653 352.444C303.24 317.789 37.1741 396.031 50.6551 299.74C58.6527 242.628 22.9258 210.728 14.7793 172.09C-4.85984 78.9462 79.191 -16.9631 171.185 3.71023C193.557 8.73772 265.557 72.1558 328.338 48.6118C448.078 3.70972 572.733 79.693 525.907 172.09Z" fill="#F2F5F8"/>
<path d="M343.241 334.466H405.068C406.679 334.461 408.223 333.819 409.363 332.68C410.502 331.54 411.144 329.996 411.149 328.385L380.743 265.545H318.916L335.639 328.384C337.16 335.48 339.897 334.466 343.241 334.466Z" fill="#D8D6DD"/>
<path d="M399.492 325.344H332.598L313.34 256.423H369.592L399.492 325.344Z" fill="#96B3C4"/>
<path d="M173.513 43.071H503.339C505.568 43.071 507.705 43.9564 509.281 45.5324C510.857 47.1083 511.743 49.2458 511.743 51.4745V265.25C511.742 267.478 510.857 269.615 509.281 271.191C507.705 272.767 505.568 273.652 503.339 273.652H173.513C171.284 273.652 169.147 272.767 167.571 271.191C165.995 269.615 165.11 267.478 165.109 265.25V51.4745C165.109 49.2458 165.995 47.1083 167.571 45.5324C169.147 43.9564 171.284 43.071 173.513 43.071Z" fill="#6892AA"/>
<path d="M176.258 59.2871H500.593V234.124H176.258V59.2871Z" fill="white"/>
<path d="M357.515 325.342H297.038C294.019 325.342 291.549 329.512 291.549 334.608H363.002C363.002 329.513 360.534 325.342 357.515 325.342Z" fill="#D8D6DD"/>
<path d="M176.293 81.2582L176.273 59.2583H500.619V81.2582H176.293Z" fill="#F2F5F8"/>
<path opacity="0.5" d="M198.99 81.2727L198.977 69.4607L204.685 69.4532C205.403 69.4482 207.247 62.5093 208.83 62.5093H237.959C239.535 62.5093 241.397 69.5027 242.115 69.5007L246.295 69.4922L246.288 81.2727H198.99Z" fill="#8F97B9"/>
<path opacity="0.5" d="M273.792 81.2727L273.779 69.4607L279.489 69.4532C280.206 69.4482 282.049 62.5093 283.633 62.5093H312.762C314.339 62.5093 316.2 69.5027 316.918 69.5007L321.098 69.4922L321.091 81.2727H273.792Z" fill="#E0F5FF"/>
<path opacity="0.5" d="M311.343 81.2727L311.33 69.4607L317.039 69.4532C317.756 69.4482 319.6 62.5093 321.184 62.5093H350.313C351.889 62.5093 353.751 69.5027 354.469 69.5007L358.649 69.4922L358.642 81.2727H311.343Z" fill="#E0F5FF"/>
<path d="M176.294 81.2727L176.281 69.4607L242.096 69.4532C242.813 69.4482 244.657 62.5093 246.241 62.5093H275.37C276.946 62.5093 278.808 69.5027 279.525 69.5007L500.629 69.4922L500.624 81.2727H176.294Z" fill="#56557E"/>
<path d="M271.738 155.836H184.824V200.532H271.738V155.836Z" fill="#E5E8F5"/>
<path d="M216.778 124.146H372.559C373.221 124.146 373.856 124.409 374.325 124.877C374.793 125.345 375.056 125.98 375.056 126.642C375.056 127.304 374.793 127.939 374.325 128.407C373.856 128.876 373.221 129.139 372.559 129.139H216.778C216.115 129.139 215.481 128.876 215.012 128.407C214.544 127.939 214.281 127.304 214.281 126.642C214.281 125.98 214.544 125.345 215.012 124.877C215.481 124.409 216.115 124.146 216.778 124.146V124.146Z" fill="#E5E8F5"/>
<path d="M185.59 134.076H372.559C373.221 134.076 373.856 134.339 374.324 134.807C374.792 135.275 375.055 135.91 375.055 136.572C375.055 137.234 374.792 137.869 374.324 138.337C373.856 138.805 373.221 139.068 372.559 139.068H185.59C184.928 139.068 184.293 138.805 183.825 138.337C183.357 137.869 183.094 137.234 183.094 136.572C183.094 135.91 183.357 135.275 183.825 134.807C184.293 134.339 184.928 134.076 185.59 134.076V134.076Z" fill="#E5E8F5"/>
<path d="M185.59 114.082H372.559C373.221 114.082 373.856 114.345 374.324 114.813C374.792 115.281 375.055 115.916 375.055 116.578C375.055 117.24 374.792 117.875 374.324 118.343C373.856 118.811 373.221 119.074 372.559 119.074H185.59C184.928 119.074 184.293 118.811 183.825 118.343C183.357 117.875 183.094 117.24 183.094 116.578C183.094 115.916 183.357 115.281 183.825 114.813C184.293 114.345 184.928 114.082 185.59 114.082V114.082Z" fill="#E5E8F5"/>
<path d="M185.59 142.606H335.638C336.3 142.606 336.935 142.869 337.403 143.337C337.871 143.805 338.134 144.44 338.134 145.102C338.134 145.764 337.871 146.399 337.403 146.867C336.935 147.335 336.3 147.598 335.638 147.598H185.59C184.928 147.598 184.293 147.335 183.825 146.867C183.357 146.399 183.094 145.764 183.094 145.102C183.094 144.44 183.357 143.805 183.825 143.337C184.293 142.869 184.928 142.606 185.59 142.606V142.606Z" fill="#E5E8F5"/>
<path d="M216.778 207.241H372.559C373.221 207.241 373.856 207.504 374.325 207.972C374.793 208.44 375.056 209.075 375.056 209.737C375.056 210.399 374.793 211.034 374.325 211.502C373.856 211.97 373.221 212.233 372.559 212.233H216.778C216.115 212.233 215.481 211.97 215.012 211.502C214.544 211.034 214.281 210.399 214.281 209.737C214.281 209.075 214.544 208.44 215.012 207.972C215.481 207.504 216.115 207.241 216.778 207.241V207.241Z" fill="#E5E8F5"/>
<path d="M185.59 217.171H372.559C373.221 217.171 373.856 217.434 374.324 217.902C374.792 218.37 375.055 219.005 375.055 219.667C375.055 220.329 374.792 220.964 374.324 221.432C373.856 221.9 373.221 222.163 372.559 222.163H185.59C184.928 222.163 184.293 221.9 183.825 221.432C183.357 220.964 183.094 220.329 183.094 219.667C183.094 219.005 183.357 218.37 183.825 217.902C184.293 217.434 184.928 217.171 185.59 217.171V217.171Z" fill="#E5E8F5"/>
<path d="M185.59 225.7H335.638C336.3 225.7 336.935 225.963 337.403 226.431C337.871 226.899 338.134 227.534 338.134 228.196C338.134 228.858 337.871 229.493 337.403 229.962C336.935 230.43 336.3 230.693 335.638 230.693H185.59C184.928 230.693 184.293 230.43 183.825 229.962C183.357 229.493 183.094 228.858 183.094 228.196C183.094 227.534 183.357 226.899 183.825 226.431C184.293 225.963 184.928 225.7 185.59 225.7V225.7Z" fill="#E5E8F5"/>
<path d="M385.624 81.2937H176.303V95.1081H385.624V81.2937Z" fill="#E5E8F5"/>
<path d="M306.34 155.947H372.09C372.752 155.947 373.387 156.21 373.855 156.678C374.323 157.146 374.586 157.781 374.586 158.443C374.586 159.105 374.323 159.74 373.855 160.208C373.387 160.676 372.752 160.939 372.09 160.939H306.34C305.678 160.939 305.043 160.676 304.575 160.208C304.107 159.74 303.844 159.105 303.844 158.443V158.443C303.844 157.781 304.107 157.146 304.575 156.678C305.043 156.21 305.678 155.947 306.34 155.947V155.947Z" fill="#E5E8F5"/>
<path d="M306.84 103.962H372.59C373.252 103.962 373.887 104.225 374.355 104.693C374.823 105.161 375.086 105.796 375.086 106.458C375.086 107.12 374.823 107.755 374.355 108.224C373.887 108.692 373.252 108.955 372.59 108.955H306.84C306.178 108.955 305.543 108.692 305.075 108.224C304.607 107.755 304.344 107.12 304.344 106.458V106.458C304.344 105.796 304.607 105.161 305.075 104.693C305.543 104.225 306.178 103.962 306.84 103.962V103.962Z" fill="#E5E8F5"/>
<path d="M281.815 167.584H372.72C373.382 167.584 374.017 167.847 374.485 168.315C374.953 168.783 375.216 169.418 375.216 170.08C375.216 170.742 374.953 171.377 374.485 171.845C374.017 172.313 373.382 172.576 372.72 172.576H281.815C281.153 172.576 280.518 172.313 280.049 171.845C279.581 171.377 279.318 170.742 279.318 170.08C279.318 169.418 279.581 168.783 280.049 168.315C280.518 167.847 281.153 167.584 281.815 167.584V167.584Z" fill="#E5E8F5"/>
<path d="M281.815 177.513H372.69C373.352 177.513 373.987 177.776 374.456 178.244C374.924 178.712 375.187 179.347 375.187 180.009C375.187 180.671 374.924 181.306 374.456 181.775C373.987 182.243 373.352 182.506 372.69 182.506H281.815C281.153 182.506 280.518 182.243 280.049 181.775C279.581 181.306 279.318 180.671 279.318 180.009C279.318 179.347 279.581 178.712 280.049 178.244C280.518 177.776 281.153 177.513 281.815 177.513V177.513Z" fill="#E5E8F5"/>
<path d="M281.815 186.165H372.69C373.352 186.165 373.987 186.428 374.456 186.896C374.924 187.365 375.187 187.999 375.187 188.662C375.187 189.324 374.924 189.959 374.456 190.427C373.987 190.895 373.352 191.158 372.69 191.158H281.815C281.153 191.158 280.518 190.895 280.049 190.427C279.581 189.959 279.318 189.324 279.318 188.662C279.318 187.999 279.581 187.365 280.049 186.896C280.518 186.428 281.153 186.165 281.815 186.165V186.165Z" fill="#E5E8F5"/>
<path d="M281.815 194.695H354.253C354.915 194.695 355.55 194.958 356.018 195.426C356.486 195.894 356.749 196.529 356.749 197.191C356.749 197.853 356.486 198.488 356.018 198.956C355.55 199.425 354.915 199.688 354.253 199.688H281.815C281.153 199.688 280.518 199.425 280.049 198.956C279.581 198.488 279.318 197.853 279.318 197.191V197.191C279.318 196.529 279.581 195.894 280.049 195.426C280.518 194.958 281.153 194.695 281.815 194.695V194.695Z" fill="#E5E8F5"/>
<path d="M187.452 76.6675H181.926V78.467L178.947 75.4889L181.926 72.5103V74.3097H187.452V76.6675Z" fill="#96B3C4"/>
<path d="M191.312 76.6675H196.835V78.467L199.813 75.4889L196.835 72.5103V74.3097H191.312V76.6675Z" fill="#96B3C4"/>
<path d="M208.09 72.6658H454.986C455.845 72.6658 456.669 73.0072 457.277 73.6149C457.885 74.2226 458.226 75.0469 458.226 75.9063C458.226 76.7657 457.885 77.59 457.277 78.1977C456.669 78.8054 455.845 79.1468 454.986 79.1468H208.09C207.231 79.1468 206.406 78.8054 205.799 78.1977C205.191 77.59 204.85 76.7657 204.85 75.9063C204.85 75.0469 205.191 74.2226 205.799 73.6149C206.406 73.0072 207.231 72.6658 208.09 72.6658Z" fill="#96B3C4"/>
<path d="M467.341 79.282C469.182 79.282 470.675 77.7895 470.675 75.9485C470.675 74.1075 469.182 72.615 467.341 72.615C465.5 72.615 464.008 74.1075 464.008 75.9485C464.008 77.7895 465.5 79.282 467.341 79.282Z" fill="#96B3C4"/>
<path d="M478.062 79.282C479.903 79.282 481.396 77.7895 481.396 75.9485C481.396 74.1075 479.903 72.615 478.062 72.615C476.221 72.615 474.729 74.1075 474.729 75.9485C474.729 77.7895 476.221 79.282 478.062 79.282Z" fill="#96B3C4"/>
<path d="M488.574 79.282C490.415 79.282 491.907 77.7895 491.907 75.9485C491.907 74.1075 490.415 72.615 488.574 72.615C486.733 72.615 485.24 74.1075 485.24 75.9485C485.24 77.7895 486.733 79.282 488.574 79.282Z" fill="#96B3C4"/>
<path d="M181.931 66.04C182.99 66.04 183.85 65.1809 183.85 64.1211C183.85 63.0613 182.99 62.2021 181.931 62.2021C180.871 62.2021 180.012 63.0613 180.012 64.1211C180.012 65.1809 180.871 66.04 181.931 66.04Z" fill="#404073"/>
<path d="M189.479 66.04C190.539 66.04 191.398 65.1809 191.398 64.1211C191.398 63.0613 190.539 62.2021 189.479 62.2021C188.42 62.2021 187.561 63.0613 187.561 64.1211C187.561 65.1809 188.42 66.04 189.479 66.04Z" fill="#F29422"/>
<path d="M197.028 66.04C198.088 66.04 198.947 65.1809 198.947 64.1211C198.947 63.0613 198.088 62.2021 197.028 62.2021C195.969 62.2021 195.109 63.0613 195.109 64.1211C195.109 65.1809 195.969 66.04 197.028 66.04Z" fill="#AB620B"/>
<path d="M359.601 65.1509H355.762V66.283H359.601V65.1509Z" fill="#E0F5FF"/>
<path d="M358.247 63.7979H357.115V67.6367H358.247V63.7979Z" fill="#E0F5FF"/>
<path d="M184.777 155.248L184.432 155.919L271.325 200.674L271.671 200.003L184.777 155.248Z" fill="white"/>
<path d="M271.33 155.641L184.438 200.407L184.783 201.078L271.676 156.312L271.33 155.641Z" fill="white"/>
<path d="M388.119 81.28H500.613V234.145H388.119V81.28Z" fill="#404073"/>
<path d="M388.119 128.729H500.613V131.659H388.119V128.729Z" fill="#37474F"/>
<path d="M385.676 81.281H388.404V234.146H385.676V81.281Z" fill="#37474F"/>
<path d="M404.876 88.6326H433.711C434.167 88.6326 434.605 88.8138 434.927 89.1364C435.25 89.459 435.431 89.8966 435.431 90.3528C435.431 90.809 435.25 91.2466 434.927 91.5692C434.605 91.8918 434.167 92.073 433.711 92.073H404.876C404.42 92.073 403.983 91.8918 403.66 91.5692C403.337 91.2466 403.156 90.809 403.156 90.3528C403.156 89.8966 403.337 89.459 403.66 89.1364C403.983 88.8138 404.42 88.6326 404.876 88.6326V88.6326Z" fill="#8F97B9"/>
<path d="M393.734 95.2334H418.126C418.583 95.2334 419.02 95.4146 419.343 95.7372C419.665 96.0599 419.847 96.4974 419.847 96.9536C419.847 97.4099 419.665 97.8474 419.343 98.17C419.02 98.4926 418.583 98.6739 418.126 98.6739H393.734C393.508 98.6739 393.284 98.6294 393.075 98.5429C392.867 98.4564 392.677 98.3297 392.517 98.1699C392.358 98.0102 392.231 97.8205 392.144 97.6117C392.058 97.403 392.014 97.1793 392.014 96.9534C392.014 96.4972 392.195 96.0597 392.517 95.7372C392.84 95.4146 393.277 95.2334 393.734 95.2334V95.2334Z" fill="#8F97B9"/>
<path d="M423.107 95.2334H466.681C467.137 95.2334 467.574 95.4146 467.897 95.7372C468.22 96.0599 468.401 96.4974 468.401 96.9536C468.401 97.4099 468.22 97.8474 467.897 98.17C467.574 98.4926 467.137 98.6739 466.681 98.6739H423.107C422.881 98.6739 422.657 98.6294 422.448 98.5429C422.24 98.4564 422.05 98.3297 421.89 98.1699C421.731 98.0102 421.604 97.8205 421.518 97.6117C421.431 97.403 421.387 97.1793 421.387 96.9534C421.387 96.4972 421.568 96.0597 421.89 95.7372C422.213 95.4146 422.651 95.2334 423.107 95.2334V95.2334Z" fill="#8F97B9"/>
<path d="M393.265 102.915H407.937C408.393 102.915 408.831 103.097 409.153 103.419C409.476 103.742 409.657 104.179 409.657 104.636C409.657 105.092 409.476 105.529 409.153 105.852C408.831 106.175 408.393 106.356 407.937 106.356H393.265C393.039 106.356 392.815 106.311 392.607 106.225C392.398 106.138 392.208 106.012 392.049 105.852C391.889 105.692 391.762 105.502 391.676 105.294C391.589 105.085 391.545 104.861 391.545 104.635C391.545 104.179 391.726 103.742 392.049 103.419C392.371 103.096 392.809 102.915 393.265 102.915V102.915Z" fill="#6FAFD8"/>
<path d="M429.361 110.035H468.958C469.414 110.035 469.852 110.216 470.174 110.539C470.497 110.861 470.678 111.299 470.678 111.755C470.678 112.211 470.497 112.649 470.174 112.972C469.852 113.294 469.414 113.475 468.958 113.475H429.361C428.905 113.475 428.467 113.294 428.144 112.972C427.822 112.649 427.641 112.211 427.641 111.755C427.641 111.299 427.822 110.861 428.144 110.539C428.467 110.216 428.905 110.035 429.361 110.035V110.035Z" fill="#8F97B9"/>
<path d="M396.691 110.035H422.923C423.379 110.035 423.816 110.216 424.139 110.539C424.462 110.861 424.643 111.299 424.643 111.755C424.643 112.211 424.462 112.649 424.139 112.972C423.816 113.294 423.379 113.475 422.923 113.475H396.691C396.235 113.475 395.797 113.294 395.475 112.972C395.152 112.649 394.971 112.211 394.971 111.755C394.971 111.299 395.152 110.861 395.475 110.539C395.797 110.216 396.235 110.035 396.691 110.035V110.035Z" fill="#8F97B9"/>
<path d="M402.505 116.878H447.199C447.655 116.878 448.093 117.059 448.415 117.382C448.738 117.704 448.919 118.142 448.919 118.598C448.919 119.054 448.738 119.492 448.415 119.815C448.093 120.137 447.655 120.318 447.199 120.318H402.505C402.279 120.318 402.056 120.274 401.847 120.187C401.638 120.101 401.448 119.974 401.289 119.814C401.129 119.655 401.002 119.465 400.916 119.256C400.83 119.048 400.785 118.824 400.785 118.598C400.785 118.142 400.966 117.704 401.289 117.382C401.611 117.059 402.049 116.878 402.505 116.878V116.878Z" fill="#8F97B9"/>
<path d="M456.154 116.878H481.966C482.422 116.878 482.859 117.059 483.182 117.382C483.505 117.704 483.686 118.142 483.686 118.598C483.686 119.054 483.505 119.492 483.182 119.815C482.859 120.137 482.422 120.318 481.966 120.318H456.154C455.698 120.318 455.26 120.137 454.937 119.815C454.615 119.492 454.434 119.054 454.434 118.598C454.434 118.142 454.615 117.704 454.937 117.382C455.26 117.059 455.698 116.878 456.154 116.878V116.878Z" fill="#8F97B9"/>
<path d="M398.49 122.756H453.716C454.172 122.756 454.61 122.937 454.933 123.26C455.255 123.582 455.436 124.02 455.436 124.476C455.436 124.932 455.255 125.37 454.933 125.692C454.61 126.015 454.172 126.196 453.716 126.196H398.49C398.034 126.196 397.596 126.015 397.273 125.692C396.951 125.37 396.77 124.932 396.77 124.476C396.77 124.02 396.951 123.582 397.273 123.26C397.596 122.937 398.034 122.756 398.49 122.756V122.756Z" fill="#8F97B9"/>
<path d="M393.265 137.56H407.937C408.393 137.56 408.831 137.741 409.153 138.064C409.476 138.386 409.657 138.824 409.657 139.28C409.657 139.736 409.476 140.174 409.153 140.496C408.831 140.819 408.393 141 407.937 141H393.265C393.039 141 392.815 140.956 392.607 140.869C392.398 140.783 392.208 140.656 392.049 140.496C391.889 140.337 391.762 140.147 391.676 139.938C391.589 139.729 391.545 139.506 391.545 139.28C391.545 138.824 391.726 138.386 392.049 138.064C392.371 137.741 392.809 137.56 393.265 137.56V137.56Z" fill="#8F97B9"/>
<path d="M429.361 144.679H468.958C469.414 144.679 469.852 144.861 470.174 145.183C470.497 145.506 470.678 145.943 470.678 146.4C470.678 146.856 470.497 147.293 470.174 147.616C469.852 147.939 469.414 148.12 468.958 148.12H429.361C428.905 148.12 428.467 147.939 428.144 147.616C427.822 147.293 427.641 146.856 427.641 146.4C427.641 145.943 427.822 145.506 428.144 145.183C428.467 144.861 428.905 144.679 429.361 144.679V144.679Z" fill="#8F97B9"/>
<path d="M396.691 144.679H422.923C423.379 144.679 423.816 144.861 424.139 145.183C424.462 145.506 424.643 145.943 424.643 146.4C424.643 146.856 424.462 147.293 424.139 147.616C423.816 147.939 423.379 148.12 422.923 148.12H396.691C396.235 148.12 395.797 147.939 395.475 147.616C395.152 147.293 394.971 146.856 394.971 146.4C394.971 145.943 395.152 145.506 395.475 145.183C395.797 144.861 396.235 144.679 396.691 144.679V144.679Z" fill="#8F97B9"/>
<path d="M402.505 151.522H447.199C447.425 151.522 447.649 151.566 447.858 151.652C448.067 151.739 448.256 151.865 448.416 152.025C448.576 152.185 448.703 152.374 448.79 152.583C448.876 152.792 448.921 153.016 448.921 153.242C448.921 153.698 448.74 154.136 448.417 154.458C448.094 154.781 447.657 154.962 447.201 154.962H402.505C402.049 154.962 401.611 154.781 401.289 154.458C400.966 154.136 400.785 153.698 400.785 153.242C400.785 152.786 400.966 152.348 401.289 152.026C401.611 151.703 402.049 151.522 402.505 151.522Z" fill="#6FAFD8"/>
<path d="M456.154 151.522H481.966C482.191 151.522 482.415 151.566 482.624 151.653C482.832 151.739 483.022 151.866 483.182 152.026C483.342 152.185 483.468 152.375 483.555 152.584C483.641 152.792 483.686 153.016 483.686 153.242C483.686 153.468 483.641 153.692 483.555 153.9C483.468 154.109 483.342 154.299 483.182 154.458C483.022 154.618 482.833 154.745 482.624 154.831C482.415 154.918 482.192 154.962 481.966 154.962H456.154C455.698 154.962 455.26 154.781 454.937 154.459C454.615 154.136 454.434 153.698 454.434 153.242C454.434 152.786 454.615 152.348 454.937 152.026C455.26 151.703 455.698 151.522 456.154 151.522V151.522Z" fill="#8F97B9"/>
<path d="M398.49 157.4H453.716C454.172 157.4 454.61 157.582 454.933 157.904C455.255 158.227 455.436 158.664 455.436 159.121C455.436 159.577 455.255 160.014 454.933 160.337C454.61 160.66 454.172 160.841 453.716 160.841H398.49C398.034 160.841 397.596 160.66 397.273 160.337C396.951 160.014 396.77 159.577 396.77 159.121C396.77 158.664 396.951 158.227 397.273 157.904C397.596 157.582 398.034 157.4 398.49 157.4V157.4Z" fill="#8F97B9"/>
<path d="M460.829 157.4H468.402C468.858 157.4 469.295 157.582 469.618 157.904C469.941 158.227 470.122 158.664 470.122 159.121C470.122 159.577 469.941 160.014 469.618 160.337C469.295 160.66 468.858 160.841 468.402 160.841H460.829C460.603 160.841 460.38 160.796 460.171 160.71C459.962 160.623 459.773 160.497 459.613 160.337C459.453 160.177 459.327 159.987 459.24 159.779C459.154 159.57 459.109 159.346 459.109 159.12C459.109 158.664 459.291 158.227 459.613 157.904C459.936 157.582 460.373 157.4 460.829 157.4V157.4Z" fill="#8F97B9"/>
<path d="M404.876 168.956H433.711C434.167 168.956 434.604 169.137 434.927 169.46C435.25 169.782 435.431 170.22 435.431 170.676C435.431 171.132 435.25 171.57 434.927 171.892C434.604 172.215 434.167 172.396 433.711 172.396H404.876C404.65 172.396 404.427 172.352 404.218 172.265C404.009 172.179 403.82 172.052 403.66 171.892C403.5 171.733 403.373 171.543 403.287 171.334C403.201 171.125 403.156 170.902 403.156 170.676C403.156 170.22 403.337 169.782 403.66 169.46C403.983 169.137 404.42 168.956 404.876 168.956V168.956Z" fill="#8F97B9"/>
<path d="M393.734 174.047H418.126C418.583 174.047 419.02 174.228 419.343 174.55C419.665 174.873 419.847 175.311 419.847 175.767C419.847 176.223 419.665 176.661 419.343 176.983C419.02 177.306 418.583 177.487 418.126 177.487H393.734C393.508 177.487 393.284 177.443 393.075 177.356C392.867 177.27 392.677 177.143 392.517 176.983C392.358 176.823 392.231 176.634 392.144 176.425C392.058 176.216 392.014 175.993 392.014 175.767C392.014 175.31 392.195 174.873 392.517 174.55C392.84 174.228 393.277 174.047 393.734 174.047V174.047Z" fill="#8F97B9"/>
<path d="M423.107 174.047H466.681C467.137 174.047 467.575 174.228 467.897 174.55C468.22 174.873 468.401 175.311 468.401 175.767C468.401 176.223 468.22 176.661 467.897 176.983C467.575 177.306 467.137 177.487 466.681 177.487H423.107C422.651 177.487 422.213 177.306 421.891 176.983C421.568 176.661 421.387 176.223 421.387 175.767C421.387 175.311 421.568 174.873 421.891 174.55C422.213 174.228 422.651 174.047 423.107 174.047V174.047Z" fill="#8F97B9"/>
<path d="M393.265 187.012H407.937C408.393 187.012 408.831 187.194 409.153 187.516C409.476 187.839 409.657 188.276 409.657 188.733C409.657 189.189 409.476 189.626 409.153 189.949C408.831 190.272 408.393 190.453 407.937 190.453H393.265C393.039 190.453 392.815 190.408 392.607 190.322C392.398 190.235 392.208 190.109 392.049 189.949C391.889 189.789 391.762 189.6 391.676 189.391C391.589 189.182 391.545 188.958 391.545 188.732C391.545 188.276 391.726 187.839 392.049 187.516C392.371 187.194 392.809 187.012 393.265 187.012V187.012Z" fill="#8F97B9"/>
<path d="M429.361 194.132H468.958C469.414 194.132 469.852 194.314 470.174 194.636C470.497 194.959 470.678 195.396 470.678 195.853C470.678 196.309 470.497 196.746 470.174 197.069C469.852 197.392 469.414 197.573 468.958 197.573H429.361C428.905 197.573 428.467 197.392 428.144 197.069C427.822 196.746 427.641 196.309 427.641 195.853C427.641 195.396 427.822 194.959 428.144 194.636C428.467 194.314 428.905 194.132 429.361 194.132V194.132Z" fill="#8F97B9"/>
<path d="M396.691 194.132H422.923C423.379 194.132 423.816 194.314 424.139 194.636C424.462 194.959 424.643 195.396 424.643 195.853C424.643 196.309 424.462 196.746 424.139 197.069C423.816 197.392 423.379 197.573 422.923 197.573H396.691C396.235 197.573 395.797 197.392 395.475 197.069C395.152 196.746 394.971 196.309 394.971 195.853C394.971 195.396 395.152 194.959 395.475 194.636C395.797 194.314 396.235 194.132 396.691 194.132V194.132Z" fill="#6FAFD8"/>
<path d="M402.505 200.975H447.199C447.655 200.975 448.093 201.156 448.415 201.479C448.738 201.801 448.919 202.239 448.919 202.695C448.919 203.151 448.738 203.589 448.415 203.911C448.093 204.234 447.655 204.415 447.199 204.415H402.505C402.279 204.415 402.056 204.371 401.847 204.284C401.638 204.198 401.448 204.071 401.289 203.911C401.129 203.752 401.002 203.562 400.916 203.353C400.83 203.144 400.785 202.921 400.785 202.695C400.785 202.239 400.966 201.801 401.289 201.479C401.611 201.156 402.049 200.975 402.505 200.975V200.975Z" fill="#8F97B9"/>
<path d="M456.154 200.975H481.966C482.191 200.975 482.415 201.019 482.624 201.106C482.832 201.192 483.022 201.319 483.182 201.479C483.342 201.638 483.468 201.828 483.555 202.037C483.641 202.245 483.686 202.469 483.686 202.695C483.686 202.921 483.641 203.144 483.555 203.353C483.468 203.562 483.342 203.752 483.182 203.911C483.022 204.071 482.833 204.198 482.624 204.284C482.415 204.371 482.192 204.415 481.966 204.415H456.154C455.698 204.415 455.26 204.234 454.937 203.911C454.615 203.589 454.434 203.151 454.434 202.695C454.434 202.239 454.615 201.801 454.937 201.479C455.26 201.156 455.698 200.975 456.154 200.975V200.975Z" fill="#8F97B9"/>
<path d="M398.49 206.853H453.716C454.172 206.853 454.61 207.034 454.933 207.357C455.255 207.679 455.436 208.117 455.436 208.573C455.436 209.029 455.255 209.467 454.933 209.79C454.61 210.112 454.172 210.293 453.716 210.293H398.49C398.034 210.293 397.596 210.112 397.273 209.79C396.951 209.467 396.77 209.029 396.77 208.573C396.77 208.117 396.951 207.679 397.273 207.357C397.596 207.034 398.034 206.853 398.49 206.853V206.853Z" fill="#8F97B9"/>
<path d="M460.829 206.853H468.402C468.858 206.853 469.295 207.034 469.618 207.357C469.941 207.679 470.122 208.117 470.122 208.573C470.122 209.029 469.941 209.467 469.618 209.79C469.295 210.112 468.858 210.293 468.402 210.293H460.829C460.603 210.293 460.38 210.249 460.171 210.163C459.962 210.076 459.773 209.949 459.613 209.79C459.453 209.63 459.327 209.44 459.24 209.231C459.154 209.023 459.109 208.799 459.109 208.573C459.109 208.117 459.291 207.679 459.613 207.357C459.936 207.034 460.373 206.853 460.829 206.853V206.853Z" fill="#8F97B9"/>
<path d="M393.265 217.883H407.937C408.394 217.883 408.831 218.064 409.154 218.387C409.476 218.709 409.658 219.147 409.658 219.603C409.658 220.059 409.476 220.497 409.154 220.819C408.831 221.142 408.394 221.323 407.937 221.323H393.265C392.809 221.323 392.371 221.142 392.049 220.819C391.726 220.497 391.545 220.059 391.545 219.603C391.545 219.147 391.726 218.709 392.049 218.387C392.371 218.064 392.809 217.883 393.265 217.883V217.883Z" fill="#8F97B9"/>
<path d="M429.361 225.003H468.958C469.414 225.003 469.852 225.184 470.174 225.507C470.497 225.829 470.678 226.267 470.678 226.723C470.678 227.179 470.497 227.617 470.174 227.94C469.852 228.262 469.414 228.443 468.958 228.443H429.361C428.905 228.443 428.467 228.262 428.144 227.94C427.822 227.617 427.641 227.179 427.641 226.723C427.641 226.267 427.822 225.829 428.144 225.507C428.467 225.184 428.905 225.003 429.361 225.003V225.003Z" fill="#8F97B9"/>
<path d="M396.691 225.003H422.923C423.379 225.003 423.816 225.184 424.139 225.507C424.462 225.829 424.643 226.267 424.643 226.723C424.643 227.179 424.462 227.617 424.139 227.94C423.816 228.262 423.379 228.443 422.923 228.443H396.691C396.235 228.443 395.797 228.262 395.475 227.94C395.152 227.617 394.971 227.179 394.971 226.723C394.971 226.267 395.152 225.829 395.475 225.507C395.797 225.184 396.235 225.003 396.691 225.003V225.003Z" fill="#8F97B9"/>
<path d="M114.36 138.757C116.971 132.38 112.199 133.042 110.667 133.818C108.868 134.731 106.514 137.702 106.837 140.022C106.837 140.022 92.4761 154.304 91.3005 155.087C86.0645 158.578 84.9844 159.991 84.9844 159.991L88.4283 167.67C89.0621 167.854 93.1979 166.197 98.6143 159.658C103.841 153.348 110.366 142.15 110.366 142.15C111.857 141.382 112.935 142.234 114.36 138.757Z" fill="#FFDFAE"/>
<path d="M91.1958 168.099C89.2299 170.174 86.2423 170.867 83.1482 172.236C78.4686 174.306 73.1012 172.207 72.7608 168.821C72.5109 166.331 75.9719 162.849 79.4148 161.323C82.186 160.097 84.6458 157.636 87.2245 158.251C87.5999 158.343 92.319 166.915 91.1958 168.099Z" fill="url(#paint0_linear)"/>
<path d="M87.3769 317.299L79.9883 317.996L81.0657 329.412L88.4543 328.714L87.3769 317.299Z" fill="#FFDFAE"/>
<path d="M65.8531 210.738C69.574 207.812 84.724 212.287 84.724 212.287L90.1758 264.217L88.3104 320.678L80.0104 321.491L74.5555 260.937C74.5555 260.937 53.2474 220.651 65.8531 210.738Z" fill="#405F73"/>
<path d="M78.1387 334.536L104.378 334.512C104.495 333.516 104.3 332.509 103.82 331.629L78.7775 331.269L78.1387 334.536Z" fill="#676F91"/>
<path d="M22.3113 246.719L25.2324 239.871L14.6901 235.374L11.769 242.221L22.3113 246.719Z" fill="#FFDFAE"/>
<path d="M68.8012 211.479L84.651 213.602L62.3711 258.882L58.6222 265.004C58.0274 265.974 57.0751 266.673 55.9704 266.948C54.8657 267.224 53.6971 267.054 52.716 266.477L16.8652 245.368L19.3275 236.862L50.4132 248.313C50.4132 248.313 55.6906 222.132 59.3155 216.091C63.6617 208.843 68.8012 211.479 68.8012 211.479Z" fill="#405F73"/>
<path d="M10.109 231.086L0 255.3C0.87276 255.793 1.87709 256.002 2.87414 255.899L12.8771 232.936L10.109 231.086Z" fill="#676F91"/>
<path d="M2.87597 255.9C5.92506 255.411 7.42461 250.402 11.8103 248.503C15.2698 247.006 15.7486 244.176 15.7486 244.176C15.7486 244.176 12.8925 241.572 14.586 238.584C15.4017 237.143 16.4459 237.945 17.2997 237.287C17.4686 237.15 17.5921 236.965 17.654 236.757C17.7159 236.548 17.7133 236.326 17.6465 236.119L11.2895 231.87L0.935547 255.716C1.55169 255.961 2.22478 256.025 2.87597 255.9Z" fill="#8F97B9"/>
<path d="M103.821 331.629C102.192 329.005 96.9916 329.555 93.5496 326.243C90.8329 323.63 88.0378 324.281 88.0378 324.281C88.0378 324.281 86.7382 327.921 83.3282 327.513C81.6842 327.316 82.0211 326.043 81.0849 325.51C80.8931 325.407 80.6748 325.364 80.4584 325.388C80.2421 325.411 80.0379 325.5 79.8727 325.641L78.4102 333.145L104.402 333.49C104.39 332.827 104.188 332.181 103.821 331.629Z" fill="#8F97B9"/>
<path d="M75.2045 162.069L66.0117 158.879L70.6163 145.607L75.215 147.201L75.2045 162.069Z" fill="#FFDFAE"/>
<path d="M67.4355 154.78L70.6171 145.609L75.2157 147.204L75.2122 153.261L67.4355 154.78Z" fill="#F4CA92"/>
<path d="M66.8741 158.132C69.0424 156.372 74.4888 156.723 77.8598 157.148L79.5293 157.359C79.5293 157.359 87.2395 163.878 88.4696 170.752C90.3355 181.182 91.9336 200.616 84.7652 213.758C84.2404 214.721 61.4697 213.879 62.4839 212.314C66.7646 205.71 55.6964 167.206 66.8741 158.132Z" fill="#92AED9"/>
<path d="M77.7921 140.34C79.7045 149.158 74.8549 152.643 66.2265 149.768C61.125 148.068 59.2951 143.281 61.7554 135.9C64.2156 128.518 69.553 127.097 74.6565 128.797C79.76 130.497 76.43 134.059 77.7921 140.34Z" fill="#FFDFAE"/>
<path d="M64.6602 165.935L148.448 115.88L175.222 160.698L91.4343 210.753L64.6602 165.935Z" fill="#BBC0D6"/>
<path d="M61.1602 165.935L148.381 113.83L175.155 158.648L87.9343 210.753L61.1602 165.935Z" fill="white"/>
<path d="M126.99 134.022L115.27 165.149L92.1948 168.468L82.2578 201.231L87.9216 210.76L175.155 158.647L161.279 135.378L126.99 134.022Z" fill="#DFE8ED"/>
<path d="M97.4133 158.776C99.237 158.776 100.715 157.297 100.715 155.474C100.715 153.65 99.237 152.172 97.4133 152.172C95.5897 152.172 94.1113 153.65 94.1113 155.474C94.1113 157.297 95.5897 158.776 97.4133 158.776Z" fill="#DFE8ED"/>
<path d="M86.5792 210.291C90.0552 211.719 93.6586 210.598 93.897 208.898C94.1615 207.01 93.0668 207.614 91.9841 208.378C91.8457 208.478 88.0888 206.989 86.9486 205.014C86.0889 203.525 85.1522 202.753 84.2809 202.449C84.2809 202.449 74.2099 176.667 66.4183 174.323C65.1686 173.947 62.137 176.813 62.137 176.813C61.4617 177.92 62.4584 181.815 63.4501 183.037L81.0049 204.681C81.3558 206.319 83.1028 208.862 86.5792 210.291Z" fill="#FFDFAE"/>
<path d="M61.7913 179.387C60.3052 176.946 60.4202 173.881 59.9118 170.537C59.1426 165.478 62.5771 160.848 65.9321 161.409C68.4008 161.823 70.8531 166.075 71.4189 169.797C71.8743 172.793 73.6043 175.812 72.3346 178.139C72.1492 178.479 62.64 180.782 61.7913 179.387Z" fill="#92AED9"/>
<path d="M72.3081 140.227C71.038 141.169 72.6715 136.507 70.5462 136.923C67.9729 137.426 74.0246 145.239 70.8861 149.755C67.5471 154.558 75.5077 165.876 66.075 172.765C52.3891 182.762 48.4758 173.093 34.8878 174.565C30.7661 175.012 30.795 154.921 48.6077 150.708C52.3681 149.818 50.3947 145.492 54.9663 142.192C57.7655 140.17 57.0052 134.601 57.7755 131.768C60.7411 120.857 69.0671 125.356 74.6759 125.633C79.2905 125.86 80.5132 135.49 72.5831 135.82C72.0672 135.842 72.7295 139.914 72.3081 140.227Z" fill="#405F73"/>
<path d="M114.961 134.588C115.302 135.48 114.304 136.748 112.656 137.453C111.007 138.158 109.367 138.018 108.991 137.14C108.616 136.262 109.648 134.979 111.296 134.274C112.945 133.569 114.45 133.248 114.961 134.588Z" fill="#FFDFAE"/>
<path d="M470.989 324.806C491.872 324.806 508.801 307.877 508.801 286.994C508.801 266.111 491.872 249.182 470.989 249.182C450.107 249.182 433.178 266.111 433.178 286.994C433.178 307.877 450.107 324.806 470.989 324.806Z" fill="#A25D91"/>
<path d="M455.99 294.18H453.296V287.898H446.557V294.18H443.863V279.807H446.557V285.99H453.296V279.807H455.99V294.18Z" fill="white"/>
<path d="M469.021 279.807V282.004H464.698V294.18H462.023V282.004H457.68V279.807H469.021Z" fill="white"/>
<path d="M478.252 288.877C478.348 289.105 478.443 289.335 478.536 289.567C478.629 289.329 478.725 289.094 478.824 288.862C478.924 288.63 479.03 288.408 479.142 288.196L483.396 280.234C483.44 280.148 483.495 280.068 483.56 279.996C483.612 279.939 483.677 279.895 483.749 279.866C483.824 279.839 483.902 279.822 483.982 279.816C484.068 279.809 484.171 279.806 484.29 279.806H486.308V294.179H483.951V284.896C483.951 284.724 483.956 284.535 483.966 284.329C483.977 284.123 483.991 283.915 484.011 283.703L479.667 291.854C479.577 292.029 479.444 292.178 479.28 292.286C479.113 292.391 478.92 292.444 478.723 292.44H478.355C478.158 292.445 477.965 292.391 477.799 292.286C477.634 292.178 477.501 292.029 477.411 291.854L473.008 283.673C473.034 283.892 473.052 284.105 473.062 284.314C473.071 284.523 473.077 284.717 473.077 284.896V294.18H470.721V279.807H472.739C472.858 279.807 472.961 279.81 473.047 279.817C473.127 279.822 473.206 279.839 473.281 279.867C473.354 279.896 473.42 279.94 473.475 279.996C473.542 280.067 473.599 280.148 473.644 280.235L477.938 288.216C478.05 288.428 478.155 288.648 478.252 288.877Z" fill="white"/>
<path d="M491.881 291.973H497.638V294.18H489.209V279.807H491.883L491.881 291.973Z" fill="white"/>
<path d="M157 308C180.196 308 199 290.315 199 268.5C199 246.685 180.196 229 157 229C133.804 229 115 246.685 115 268.5C115 290.315 133.804 308 157 308Z" fill="#96B3C4"/>
<path d="M141.401 261.721C141.305 261.932 141.152 262.113 140.958 262.245C140.777 262.351 140.568 262.404 140.358 262.398C140.077 262.383 139.806 262.292 139.574 262.136C139.284 261.961 138.942 261.767 138.548 261.552C138.106 261.318 137.643 261.122 137.165 260.967C136.56 260.781 135.928 260.693 135.293 260.705C134.719 260.695 134.147 260.772 133.597 260.934C133.153 261.066 132.739 261.281 132.379 261.567C132.056 261.829 131.802 262.163 131.64 262.541C131.474 262.935 131.391 263.358 131.396 263.784C131.378 264.306 131.554 264.816 131.893 265.222C132.258 265.631 132.705 265.965 133.206 266.202C133.805 266.494 134.427 266.737 135.067 266.93C135.761 267.144 136.471 267.372 137.198 267.615C137.923 267.858 138.634 268.14 139.328 268.46C140.008 268.771 140.635 269.18 141.189 269.674C141.747 270.183 142.194 270.795 142.502 271.475C142.854 272.294 143.023 273.176 142.998 274.063C143.006 275.125 142.808 276.178 142.415 277.168C142.037 278.117 141.456 278.976 140.71 279.69C139.925 280.429 138.992 281.004 137.97 281.381C136.786 281.811 135.529 282.02 134.265 281.998C133.471 281.999 132.678 281.923 131.9 281.77C131.135 281.622 130.387 281.403 129.665 281.118C128.966 280.845 128.296 280.506 127.664 280.106C127.062 279.728 126.504 279.287 126 278.791L127.352 276.608C127.48 276.45 127.636 276.315 127.813 276.21C127.994 276.103 128.202 276.047 128.413 276.049C128.755 276.069 129.081 276.19 129.349 276.396C129.686 276.628 130.083 276.884 130.54 277.166C131.052 277.474 131.594 277.732 132.158 277.936C132.875 278.183 133.633 278.3 134.393 278.282C135.506 278.351 136.606 278.024 137.489 277.361C137.863 277.027 138.156 276.616 138.345 276.158C138.535 275.7 138.617 275.206 138.585 274.713C138.61 274.149 138.435 273.593 138.089 273.14C137.731 272.712 137.283 272.363 136.775 272.117C136.181 271.821 135.558 271.586 134.914 271.415C134.221 271.222 133.514 271.014 132.792 270.788C132.068 270.562 131.36 270.292 130.67 269.979C129.984 269.67 129.356 269.252 128.81 268.744C128.242 268.204 127.795 267.556 127.496 266.841C127.14 265.943 126.971 264.985 127 264.024C127.002 263.115 127.194 262.217 127.563 261.382C127.932 260.547 128.471 259.794 129.148 259.167C129.895 258.485 130.773 257.95 131.73 257.593C132.847 257.182 134.033 256.981 135.226 257.001C136.625 256.987 138.015 257.216 139.331 257.678C140.519 258.091 141.608 258.736 142.532 259.572L141.401 261.721Z" fill="white"/>
<path d="M177.438 277.315H187V281H173V257H177.442L177.438 277.315Z" fill="white"/>
<path d="M252.361 306.753C264.117 306.753 273.647 297.222 273.647 285.466C273.647 273.71 264.117 264.179 252.361 264.179C240.605 264.179 231.074 273.71 231.074 285.466C231.074 297.222 240.605 306.753 252.361 306.753Z" fill="#F29422"/>
<path d="M247.132 290.176C247.192 290.175 247.251 290.188 247.306 290.212C247.361 290.237 247.41 290.273 247.449 290.317L248.336 291.279C247.852 291.882 247.231 292.36 246.526 292.675C245.711 293.018 244.832 293.183 243.947 293.16C243.118 293.173 242.294 293.016 241.528 292.7C240.833 292.408 240.207 291.972 239.693 291.421C239.174 290.856 238.778 290.191 238.527 289.466C238.25 288.668 238.113 287.828 238.122 286.983C238.111 286.131 238.264 285.284 238.571 284.488C238.855 283.755 239.289 283.089 239.845 282.533C240.402 281.977 241.068 281.544 241.802 281.262C242.605 280.95 243.461 280.796 244.322 280.806C245.128 280.789 245.928 280.935 246.675 281.237C247.317 281.504 247.902 281.891 248.4 282.377L247.65 283.422C247.604 283.49 247.546 283.55 247.479 283.597C247.393 283.652 247.292 283.678 247.19 283.672C247.047 283.667 246.909 283.614 246.798 283.522C246.634 283.404 246.464 283.295 246.288 283.197C246.039 283.062 245.777 282.953 245.506 282.871C244.592 282.629 243.624 282.68 242.74 283.017C242.274 283.208 241.854 283.498 241.511 283.867C241.156 284.255 240.883 284.711 240.709 285.208C240.509 285.779 240.412 286.38 240.42 286.984C240.41 287.601 240.508 288.215 240.709 288.798C240.88 289.291 241.145 289.745 241.491 290.136C241.813 290.494 242.209 290.777 242.652 290.967C243.106 291.161 243.596 291.26 244.09 291.256C244.368 291.258 244.646 291.241 244.922 291.206C245.155 291.176 245.384 291.123 245.607 291.047C245.814 290.976 246.013 290.882 246.2 290.767C246.398 290.645 246.585 290.503 246.756 290.345C246.809 290.298 246.868 290.257 246.931 290.224C246.994 290.193 247.062 290.176 247.132 290.176Z" fill="white"/>
<path d="M256.51 283.138C256.464 283.242 256.391 283.332 256.297 283.397C256.21 283.449 256.11 283.475 256.009 283.472C255.874 283.465 255.744 283.42 255.632 283.343C255.493 283.257 255.329 283.16 255.139 283.054C254.927 282.938 254.704 282.842 254.475 282.765C254.184 282.673 253.88 282.63 253.575 282.636C253.299 282.631 253.024 282.669 252.76 282.749C252.547 282.814 252.348 282.921 252.175 283.062C252.019 283.191 251.898 283.356 251.82 283.543C251.74 283.738 251.7 283.947 251.703 284.157C251.694 284.415 251.778 284.667 251.941 284.867C252.117 285.07 252.331 285.234 252.572 285.352C252.86 285.496 253.159 285.616 253.467 285.711C253.8 285.817 254.141 285.93 254.49 286.05C254.839 286.17 255.181 286.309 255.514 286.467C255.841 286.621 256.142 286.823 256.408 287.067C256.676 287.318 256.891 287.621 257.039 287.957C257.209 288.361 257.29 288.797 257.277 289.236C257.281 289.76 257.187 290.28 256.998 290.77C256.816 291.238 256.537 291.663 256.178 292.015C255.801 292.38 255.353 292.665 254.862 292.851C254.293 293.063 253.689 293.167 253.081 293.156C252.699 293.156 252.319 293.118 251.945 293.043C251.577 292.97 251.217 292.862 250.87 292.721C250.535 292.586 250.213 292.418 249.909 292.221C249.62 292.034 249.352 291.816 249.109 291.571L249.759 290.493C249.821 290.415 249.896 290.348 249.981 290.296C250.067 290.243 250.167 290.216 250.269 290.217C250.433 290.226 250.59 290.286 250.719 290.388C250.88 290.503 251.071 290.629 251.291 290.769C251.537 290.921 251.798 291.048 252.068 291.149C252.413 291.271 252.777 291.329 253.143 291.32C253.677 291.354 254.206 291.192 254.63 290.865C254.81 290.7 254.951 290.497 255.042 290.27C255.133 290.044 255.172 289.8 255.157 289.556C255.169 289.278 255.085 289.003 254.919 288.779C254.746 288.568 254.531 288.396 254.287 288.274C254.002 288.128 253.702 288.012 253.393 287.927C253.06 287.832 252.72 287.729 252.373 287.618C252.025 287.506 251.685 287.372 251.354 287.218C251.024 287.065 250.722 286.859 250.459 286.607C250.187 286.341 249.972 286.021 249.828 285.667C249.657 285.224 249.576 284.751 249.59 284.276C249.591 283.827 249.683 283.383 249.86 282.97C250.038 282.558 250.297 282.186 250.622 281.876C250.981 281.539 251.403 281.275 251.863 281.099C252.399 280.895 252.97 280.796 253.543 280.806C254.215 280.799 254.883 280.912 255.515 281.14C256.086 281.344 256.61 281.663 257.054 282.076L256.51 283.138Z" fill="white"/>
<path d="M265.478 283.138C265.433 283.242 265.359 283.332 265.265 283.397C265.178 283.449 265.078 283.475 264.977 283.472C264.842 283.465 264.712 283.42 264.601 283.343C264.461 283.257 264.297 283.16 264.107 283.054C263.895 282.938 263.673 282.842 263.443 282.765C263.152 282.673 262.848 282.63 262.543 282.636C262.267 282.631 261.993 282.669 261.729 282.749C261.515 282.814 261.316 282.921 261.144 283.062C260.988 283.191 260.866 283.356 260.788 283.543C260.709 283.738 260.669 283.947 260.671 284.157C260.663 284.415 260.747 284.667 260.91 284.867C261.085 285.07 261.3 285.234 261.541 285.352C261.828 285.496 262.127 285.616 262.435 285.711C262.768 285.817 263.109 285.93 263.459 286.05C263.807 286.17 264.149 286.309 264.482 286.467C264.809 286.621 265.111 286.823 265.376 287.067C265.645 287.318 265.859 287.621 266.008 287.957C266.177 288.361 266.258 288.797 266.246 289.236C266.25 289.76 266.155 290.28 265.966 290.77C265.785 291.238 265.505 291.663 265.147 292.015C264.77 292.38 264.322 292.665 263.83 292.851C263.261 293.063 262.657 293.167 262.05 293.156C261.668 293.156 261.287 293.118 260.913 293.043C260.546 292.97 260.186 292.862 259.839 292.721C259.503 292.586 259.181 292.418 258.878 292.221C258.589 292.034 258.32 291.816 258.078 291.571L258.728 290.493C258.789 290.415 258.864 290.348 258.949 290.296C259.036 290.243 259.136 290.216 259.238 290.217C259.402 290.226 259.559 290.286 259.688 290.388C259.849 290.503 260.04 290.629 260.26 290.769C260.506 290.921 260.766 291.048 261.037 291.149C261.382 291.271 261.746 291.329 262.111 291.32C262.646 291.354 263.175 291.192 263.599 290.865C263.779 290.7 263.92 290.496 264.011 290.27C264.102 290.044 264.141 289.8 264.126 289.556C264.138 289.278 264.054 289.003 263.887 288.779C263.715 288.568 263.5 288.396 263.256 288.274C262.971 288.128 262.671 288.012 262.362 287.927C262.029 287.832 261.689 287.729 261.342 287.618C260.994 287.506 260.654 287.372 260.322 287.218C259.993 287.065 259.691 286.859 259.428 286.607C259.155 286.341 258.941 286.021 258.797 285.667C258.626 285.224 258.545 284.751 258.558 284.276C258.56 283.827 258.652 283.383 258.829 282.97C259.007 282.558 259.266 282.186 259.591 281.876C259.95 281.539 260.372 281.275 260.832 281.099C261.368 280.895 261.938 280.796 262.512 280.806C263.184 280.799 263.852 280.912 264.484 281.14C265.055 281.344 265.579 281.663 266.022 282.076L265.478 283.138Z" fill="white"/>
<path d="M117.781 91.0151C138.563 91.0151 155.411 74.1675 155.411 53.3849C155.411 32.6023 138.563 15.7546 117.781 15.7546C96.998 15.7546 80.1504 32.6023 80.1504 53.3849C80.1504 74.1675 96.998 91.0151 117.781 91.0151Z" fill="#8765DB"/>
<path d="M111.999 58.947C112.021 60.7797 111.786 62.6057 111.303 64.3651C110.889 65.8745 110.182 67.2751 109.227 68.4767C108.289 69.6228 107.11 70.5171 105.784 71.0865C104.257 71.7233 102.626 72.0328 100.985 71.9972C100.163 71.9978 99.3427 71.9442 98.5274 71.8369C97.6764 71.7209 96.8325 71.5523 96 71.3322L96.3243 67.3922C96.3423 67.0596 96.479 66.7468 96.7066 66.5175C96.9828 66.2766 97.3355 66.1574 97.692 66.1844C98.0412 66.1981 98.3876 66.2561 98.7239 66.3571C100.038 66.6497 101.402 66.5688 102.677 66.1228C103.344 65.8618 103.932 65.4156 104.381 64.8307C104.877 64.1512 105.229 63.3657 105.413 62.5282C105.664 61.4034 105.78 60.2497 105.76 59.094V36H111.998L111.999 58.947Z" fill="white"/>
<path d="M139.742 43.6096C139.607 43.9048 139.391 44.1586 139.117 44.3433C138.861 44.4909 138.567 44.5651 138.269 44.5572C137.873 44.5356 137.49 44.4087 137.164 44.1904C136.754 43.9458 136.271 43.6733 135.714 43.373C135.09 43.0445 134.437 42.7705 133.763 42.5543C132.908 42.2935 132.015 42.1696 131.119 42.1875C130.309 42.173 129.501 42.281 128.726 42.5076C128.098 42.6927 127.514 42.9938 127.006 43.3943C126.549 43.7608 126.191 44.2282 125.962 44.7569C125.728 45.3092 125.611 45.9011 125.618 46.4977C125.593 47.2281 125.841 47.943 126.319 48.5105C126.835 49.0837 127.466 49.5506 128.174 49.883C129.019 50.2919 129.897 50.6325 130.801 50.9014C131.78 51.2017 132.782 51.5213 133.808 51.8603C134.833 52.2008 135.837 52.5962 136.816 53.0445C137.776 53.4789 138.662 54.0521 139.443 54.7442C140.231 55.4556 140.862 56.3131 141.297 57.2654C141.794 58.4118 142.032 59.6469 141.996 60.8888C142.008 62.3748 141.729 63.8496 141.174 65.2358C140.641 66.5637 139.82 67.767 138.767 68.7655C137.658 69.8004 136.342 70.6062 134.899 71.1338C133.227 71.7353 131.453 72.0284 129.669 71.9978C128.547 71.9991 127.428 71.8919 126.329 71.6778C125.25 71.4702 124.193 71.1647 123.173 70.7655C122.187 70.3824 121.241 69.908 120.35 69.3491C119.5 68.819 118.712 68.2016 118 67.5077L119.909 64.4511C120.09 64.2298 120.31 64.0413 120.56 63.8945C120.814 63.7441 121.108 63.6661 121.407 63.6692C121.889 63.6964 122.35 63.866 122.728 64.155C123.203 64.4789 123.764 64.8382 124.41 65.2329C125.133 65.6637 125.897 66.0248 126.693 66.3109C127.706 66.6561 128.775 66.8202 129.849 66.7953C131.42 66.8918 132.974 66.433 134.219 65.5049C134.748 65.0375 135.161 64.4621 135.429 63.8207C135.697 63.1793 135.812 62.4882 135.767 61.7981C135.803 61.0081 135.556 60.2303 135.067 59.5955C134.561 58.9967 133.929 58.5086 133.212 58.1635C132.374 57.7496 131.493 57.4201 130.585 57.1805C129.606 56.9113 128.607 56.6191 127.589 56.3037C126.567 55.987 125.566 55.6085 124.593 55.1706C123.625 54.7374 122.737 54.1531 121.966 53.4411C121.165 52.6854 120.533 51.7784 120.112 50.7767C119.61 49.52 119.372 48.1796 119.411 46.8334C119.415 45.5614 119.685 44.3032 120.206 43.1348C120.727 41.9663 121.489 40.9116 122.444 40.0345C123.499 39.0788 124.738 38.3303 126.09 37.8306C127.666 37.2551 129.341 36.9739 131.025 37.0019C133 36.982 134.963 37.303 136.82 37.9495C138.498 38.5274 140.035 39.4297 141.339 40.6011L139.742 43.6096Z" fill="white"/>
<path d="M168.614 280.77C167.974 281.55 167.214 282.14 166.334 282.54C165.474 282.96 164.534 283.17 163.514 283.17C162.274 283.17 161.094 282.86 159.974 282.24C158.874 281.64 157.634 280.62 156.254 279.18C154.234 279.12 152.414 278.62 150.794 277.68C149.174 276.74 147.904 275.47 146.984 273.87C146.064 272.27 145.604 270.48 145.604 268.5C145.604 266.48 146.074 264.66 147.014 263.04C147.974 261.42 149.294 260.15 150.974 259.23C152.674 258.29 154.564 257.82 156.644 257.82C158.724 257.82 160.594 258.28 162.254 259.2C163.934 260.12 165.254 261.4 166.214 263.04C167.174 264.66 167.654 266.48 167.654 268.5C167.654 270.26 167.284 271.88 166.544 273.36C165.824 274.82 164.804 276.04 163.484 277.02C162.184 278 160.684 278.65 158.984 278.97C160.524 280.59 162.044 281.4 163.544 281.4C165.104 281.4 166.434 280.76 167.534 279.48L168.614 280.77ZM147.794 268.5C147.794 270.14 148.174 271.62 148.934 272.94C149.714 274.26 150.774 275.3 152.114 276.06C153.474 276.82 154.984 277.2 156.644 277.2C158.304 277.2 159.804 276.82 161.144 276.06C162.484 275.3 163.534 274.26 164.294 272.94C165.054 271.62 165.434 270.14 165.434 268.5C165.434 266.86 165.054 265.38 164.294 264.06C163.534 262.74 162.484 261.7 161.144 260.94C159.804 260.18 158.304 259.8 156.644 259.8C154.984 259.8 153.474 260.18 152.114 260.94C150.774 261.7 149.714 262.74 148.934 264.06C148.174 265.38 147.794 266.86 147.794 268.5Z" fill="white"/>
<path d="M168.614 280.77L169.387 281.404L169.913 280.764L169.381 280.128L168.614 280.77ZM166.334 282.54L165.92 281.63L165.908 281.635L165.895 281.641L166.334 282.54ZM159.974 282.24L160.458 281.365L160.453 281.362L159.974 282.24ZM156.254 279.18L156.976 278.488L156.693 278.193L156.284 278.18L156.254 279.18ZM150.794 277.68L150.292 278.545L150.794 277.68ZM146.984 273.87L146.117 274.368H146.117L146.984 273.87ZM147.014 263.04L146.154 262.53L146.149 262.538L147.014 263.04ZM150.974 259.23L151.454 260.107L151.458 260.105L150.974 259.23ZM162.254 259.2L161.769 260.075L161.774 260.077L162.254 259.2ZM166.214 263.04L165.351 263.545L165.354 263.55L166.214 263.04ZM166.544 273.36L165.65 272.913L165.647 272.918L166.544 273.36ZM163.484 277.02L162.888 276.217L162.882 276.221L163.484 277.02ZM158.984 278.97L158.799 277.987L156.993 278.327L158.259 279.659L158.984 278.97ZM167.534 279.48L168.301 278.838L167.544 277.934L166.776 278.828L167.534 279.48ZM148.934 272.94L148.067 273.439L148.073 273.449L148.934 272.94ZM152.114 276.06L151.621 276.93L151.626 276.933L152.114 276.06ZM161.144 276.06L161.637 276.93L161.144 276.06ZM164.294 272.94L163.427 272.441L163.427 272.441L164.294 272.94ZM164.294 264.06L163.427 264.559H163.427L164.294 264.06ZM161.144 260.94L161.637 260.07V260.07L161.144 260.94ZM152.114 260.94L151.626 260.067L151.621 260.07L152.114 260.94ZM148.934 264.06L148.073 263.551L148.067 263.561L148.934 264.06ZM167.841 280.136C167.294 280.803 166.655 281.296 165.92 281.63L166.748 283.45C167.773 282.984 168.654 282.297 169.387 281.404L167.841 280.136ZM165.895 281.641C165.181 281.99 164.392 282.17 163.514 282.17V284.17C164.676 284.17 165.767 283.93 166.773 283.439L165.895 281.641ZM163.514 282.17C162.449 282.17 161.435 281.906 160.458 281.365L159.49 283.115C160.753 283.814 162.099 284.17 163.514 284.17V282.17ZM160.453 281.362C159.48 280.831 158.322 279.892 156.976 278.488L155.532 279.872C156.946 281.348 158.268 282.449 159.495 283.118L160.453 281.362ZM156.284 278.18C154.416 278.125 152.761 277.665 151.296 276.815L150.292 278.545C152.067 279.575 154.052 280.115 156.224 280.18L156.284 278.18ZM151.296 276.815C149.825 275.962 148.682 274.817 147.851 273.372L146.117 274.368C147.126 276.123 148.523 277.518 150.292 278.545L151.296 276.815ZM147.851 273.372C147.024 271.934 146.604 270.318 146.604 268.5H144.604C144.604 270.642 145.104 272.606 146.117 274.368L147.851 273.372ZM146.604 268.5C146.604 266.642 147.034 264.998 147.879 263.542L146.149 262.538C145.114 264.322 144.604 266.318 144.604 268.5H146.604ZM147.874 263.55C148.741 262.087 149.929 260.943 151.454 260.107L150.494 258.353C148.659 259.357 147.207 260.753 146.154 262.53L147.874 263.55ZM151.458 260.105C152.999 259.253 154.721 258.82 156.644 258.82V256.82C154.407 256.82 152.349 257.327 150.49 258.355L151.458 260.105ZM156.644 258.82C158.571 258.82 160.271 259.245 161.769 260.075L162.739 258.325C160.916 257.315 158.877 256.82 156.644 256.82V258.82ZM161.774 260.077C163.296 260.911 164.483 262.063 165.351 263.545L167.077 262.535C166.025 260.737 164.572 259.329 162.734 258.323L161.774 260.077ZM165.354 263.55C166.216 265.004 166.654 266.646 166.654 268.5H168.654C168.654 266.314 168.132 264.316 167.074 262.53L165.354 263.55ZM166.654 268.5C166.654 270.115 166.316 271.58 165.65 272.913L167.438 273.807C168.252 272.18 168.654 270.405 168.654 268.5H166.654ZM165.647 272.918C164.998 274.234 164.082 275.331 162.888 276.217L164.08 277.823C165.526 276.749 166.65 275.406 167.441 273.802L165.647 272.918ZM162.882 276.221C161.713 277.103 160.357 277.694 158.799 277.987L159.169 279.953C161.011 279.606 162.655 278.897 164.086 277.819L162.882 276.221ZM158.259 279.659C159.896 281.38 161.66 282.4 163.544 282.4V280.4C162.428 280.4 161.152 279.8 159.709 278.281L158.259 279.659ZM163.544 282.4C165.421 282.4 167.02 281.612 168.292 280.132L166.776 278.828C165.848 279.908 164.787 280.4 163.544 280.4V282.4ZM166.767 280.122L167.847 281.412L169.381 280.128L168.301 278.838L166.767 280.122ZM146.794 268.5C146.794 270.301 147.213 271.956 148.067 273.439L149.801 272.441C149.135 271.284 148.794 269.979 148.794 268.5H146.794ZM148.073 273.449C148.942 274.92 150.129 276.084 151.621 276.93L152.607 275.19C151.418 274.516 150.486 273.6 149.795 272.431L148.073 273.449ZM151.626 276.933C153.145 277.782 154.825 278.2 156.644 278.2V276.2C155.143 276.2 153.803 275.858 152.602 275.187L151.626 276.933ZM156.644 278.2C158.463 278.2 160.135 277.782 161.637 276.93L160.651 275.19C159.473 275.858 158.145 276.2 156.644 276.2V278.2ZM161.637 276.93C163.131 276.083 164.31 274.916 165.161 273.439L163.427 272.441C162.757 273.604 161.837 274.517 160.651 275.19L161.637 276.93ZM165.161 273.439C166.015 271.956 166.434 270.301 166.434 268.5H164.434C164.434 269.979 164.093 271.284 163.427 272.441L165.161 273.439ZM166.434 268.5C166.434 266.699 166.015 265.044 165.161 263.561L163.427 264.559C164.093 265.716 164.434 267.021 164.434 268.5H166.434ZM165.161 263.561C164.31 262.084 163.131 260.917 161.637 260.07L160.651 261.81C161.837 262.483 162.757 263.396 163.427 264.559L165.161 263.561ZM161.637 260.07C160.135 259.218 158.463 258.8 156.644 258.8V260.8C158.145 260.8 159.473 261.142 160.651 261.81L161.637 260.07ZM156.644 258.8C154.825 258.8 153.145 259.218 151.626 260.067L152.602 261.813C153.803 261.142 155.143 260.8 156.644 260.8V258.8ZM151.621 260.07C150.129 260.916 148.942 262.08 148.073 263.551L149.795 264.569C150.486 263.4 151.418 262.484 152.607 261.81L151.621 260.07ZM148.067 263.561C147.213 265.044 146.794 266.699 146.794 268.5H148.794C148.794 267.021 149.135 265.716 149.801 264.559L148.067 263.561Z" fill="#FAFAF9"/>
<defs>
<linearGradient id="paint0_linear" x1="3.36945" y1="250.632" x2="23.7771" y2="250.632" gradientUnits="userSpaceOnUse">
<stop stop-color="#F761A1"/>
<stop offset="0.162" stop-color="#ED5AA1"/>
<stop offset="0.429" stop-color="#D44AA4"/>
<stop offset="0.766" stop-color="#AC30A7"/>
<stop offset="1" stop-color="#8C1BAB"/>
</linearGradient>
</defs>
</svg>
